<?xml version="1.0" encoding="utf-8"?>
<!-- Generator: Adobe Illustrator 22.0.0, SVG Export Plug-In . SVG Version: 6.00 Build 0)  -->
<svg version="1.1" id="Layer_1" xmlns="http://www.w3.org/2000/svg" xmlns:xlink="http://www.w3.org/1999/xlink" x="0px" y="0px"
	 viewBox="0 0 1366 768" style="enable-background:new 0 0 1366 768;" xml:space="preserve">
<style type="text/css">
	.st0{fill:none;stroke:#000000;stroke-width:0.5;stroke-miterlimit:10;}
	.st1{fill:none;stroke:#000000;stroke-miterlimit:10;}
	.st2{fill:none;stroke:#000000;stroke-miterlimit:10;stroke-dasharray:1.9565,1.9565;}
	.st3{fill:none;stroke:#000000;stroke-miterlimit:10;stroke-dasharray:2,2;}
</style>
<g>
	<g>
		<path d="M1017,116c6.3,0,11.5,5.2,11.5,11.5v513c0,6.3-5.2,11.5-11.5,11.5H429c-6.3,0-11.5-5.2-11.5-11.5v-513
			c0-6.3,5.2-11.5,11.5-11.5H1017 M1017,115.5H429c-6.6,0-12,5.4-12,12v513c0,6.6,5.4,12,12,12h588c6.6,0,12-5.4,12-12v-513
			C1029,120.9,1023.6,115.5,1017,115.5L1017,115.5z"/>
	</g>
	<g>
		<path d="M628.5,197v16h-142v-16H628.5 M629,196.5H486v17h143V196.5L629,196.5z"/>
	</g>
	<g>
		<path d="M628.5,237v16h-142v-16H628.5 M629,236.5H486v17h143V236.5L629,236.5z"/>
	</g>
	<g>
		<path d="M798.5,237v16h-142v-16H798.5 M799,236.5H656v17h143V236.5L799,236.5z"/>
	</g>
	<g>
		<path d="M960.5,237v16h-133v-16H960.5 M961,236.5H827v17h134V236.5L961,236.5z"/>
	</g>
	<g>
		<path d="M798.5,197v16h-142v-16H798.5 M799,196.5H656v17h143V196.5L799,196.5z"/>
	</g>
	<g>
		<path d="M960.5,261v46h-474v-46H960.5 M961,260.5H486v47h475V260.5L961,260.5z"/>
	</g>
	<g>
		<g>
			<g>
				<rect x="490" y="559.5" width="1" height="7"/>
			</g>
			<g>
				<rect x="487" y="562.5" width="7" height="1"/>
			</g>
		</g>
		<circle cx="498" cy="565.5" r="1"/>
		<circle cx="505.3" cy="565.5" r="1"/>
		<circle cx="512.7" cy="565.5" r="1"/>
		<circle cx="520" cy="565.5" r="1"/>
		<circle cx="527.3" cy="565.5" r="1"/>
		<circle cx="534.7" cy="565.5" r="1"/>
		<circle cx="542" cy="565.5" r="1"/>
	</g>
	<g>
		<g>
			<g>
				<rect x="549" y="559.5" width="1" height="7"/>
			</g>
			<g>
				<rect x="546" y="562.5" width="7" height="1"/>
			</g>
		</g>
		<circle cx="557" cy="565.5" r="1"/>
		<circle cx="564.3" cy="565.5" r="1"/>
		<circle cx="571.7" cy="565.5" r="1"/>
		<circle cx="579" cy="565.5" r="1"/>
		<circle cx="586.3" cy="565.5" r="1"/>
		<circle cx="593.7" cy="565.5" r="1"/>
		<circle cx="601" cy="565.5" r="1"/>
	</g>
	<g>
		<g>
			<g>
				<rect x="608" y="559.5" width="1" height="7"/>
			</g>
			<g>
				<rect x="605" y="562.5" width="7" height="1"/>
			</g>
		</g>
		<circle cx="616" cy="565.5" r="1"/>
		<circle cx="623.3" cy="565.5" r="1"/>
		<circle cx="630.7" cy="565.5" r="1"/>
		<circle cx="638" cy="565.5" r="1"/>
		<circle cx="645.3" cy="565.5" r="1"/>
		<circle cx="652.7" cy="565.5" r="1"/>
		<circle cx="660" cy="565.5" r="1"/>
	</g>
	<g>
		<g>
			<g>
				<rect x="667" y="559.5" width="1" height="7"/>
			</g>
			<g>
				<rect x="664" y="562.5" width="7" height="1"/>
			</g>
		</g>
		<circle cx="675" cy="565.5" r="1"/>
		<circle cx="682.3" cy="565.5" r="1"/>
		<circle cx="689.7" cy="565.5" r="1"/>
		<circle cx="697" cy="565.5" r="1"/>
		<circle cx="704.3" cy="565.5" r="1"/>
		<circle cx="711.7" cy="565.5" r="1"/>
		<circle cx="719" cy="565.5" r="1"/>
	</g>
	<g>
		<g>
			<g>
				<rect x="726" y="559.5" width="1" height="7"/>
			</g>
			<g>
				<rect x="723" y="562.5" width="7" height="1"/>
			</g>
		</g>
		<circle cx="734" cy="565.5" r="1"/>
		<circle cx="741.3" cy="565.5" r="1"/>
		<circle cx="748.7" cy="565.5" r="1"/>
		<circle cx="756" cy="565.5" r="1"/>
		<circle cx="763.3" cy="565.5" r="1"/>
		<circle cx="770.7" cy="565.5" r="1"/>
		<circle cx="778" cy="565.5" r="1"/>
	</g>
	<g>
		<g>
			<g>
				<rect x="785" y="559.5" width="1" height="7"/>
			</g>
			<g>
				<rect x="782" y="562.5" width="7" height="1"/>
			</g>
		</g>
		<circle cx="793" cy="565.5" r="1"/>
		<circle cx="800.3" cy="565.5" r="1"/>
		<circle cx="807.7" cy="565.5" r="1"/>
		<circle cx="815" cy="565.5" r="1"/>
		<circle cx="822.3" cy="565.5" r="1"/>
		<circle cx="829.7" cy="565.5" r="1"/>
		<circle cx="837" cy="565.5" r="1"/>
	</g>
	<g>
		<g>
			<g>
				<rect x="844" y="559.5" width="1" height="7"/>
			</g>
			<g>
				<rect x="841" y="562.5" width="7" height="1"/>
			</g>
		</g>
		<circle cx="852" cy="565.5" r="1"/>
		<circle cx="859.3" cy="565.5" r="1"/>
		<circle cx="866.7" cy="565.5" r="1"/>
		<circle cx="874" cy="565.5" r="1"/>
		<circle cx="881.3" cy="565.5" r="1"/>
		<circle cx="888.7" cy="565.5" r="1"/>
		<circle cx="896" cy="565.5" r="1"/>
	</g>
	<g>
		<g>
			<g>
				<rect x="903" y="559.5" width="1" height="7"/>
			</g>
			<g>
				<rect x="900" y="562.5" width="7" height="1"/>
			</g>
		</g>
		<circle cx="911" cy="565.5" r="1"/>
		<circle cx="918.3" cy="565.5" r="1"/>
		<circle cx="925.7" cy="565.5" r="1"/>
		<circle cx="933" cy="565.5" r="1"/>
		<circle cx="940.3" cy="565.5" r="1"/>
		<circle cx="947.7" cy="565.5" r="1"/>
		<circle cx="955" cy="565.5" r="1"/>
	</g>
	<g>
		<g>
			<g>
				<g>
					<rect x="490" y="440.5" width="1" height="7"/>
				</g>
				<g>
					<rect x="487" y="443.5" width="7" height="1"/>
				</g>
			</g>
			<circle cx="498" cy="446.5" r="1"/>
			<circle cx="505.3" cy="446.5" r="1"/>
			<circle cx="512.7" cy="446.5" r="1"/>
			<circle cx="520" cy="446.5" r="1"/>
			<circle cx="527.3" cy="446.5" r="1"/>
			<circle cx="534.7" cy="446.5" r="1"/>
			<circle cx="542" cy="446.5" r="1"/>
		</g>
		<g>
			<g>
				<g>
					<rect x="549" y="440.5" width="1" height="7"/>
				</g>
				<g>
					<rect x="546" y="443.5" width="7" height="1"/>
				</g>
			</g>
			<circle cx="557" cy="446.5" r="1"/>
			<circle cx="564.3" cy="446.5" r="1"/>
			<circle cx="571.7" cy="446.5" r="1"/>
			<circle cx="579" cy="446.5" r="1"/>
			<circle cx="586.3" cy="446.5" r="1"/>
			<circle cx="593.7" cy="446.5" r="1"/>
			<circle cx="601" cy="446.5" r="1"/>
		</g>
		<g>
			<g>
				<g>
					<rect x="608" y="440.5" width="1" height="7"/>
				</g>
				<g>
					<rect x="605" y="443.5" width="7" height="1"/>
				</g>
			</g>
			<circle cx="616" cy="446.5" r="1"/>
			<circle cx="623.3" cy="446.5" r="1"/>
			<circle cx="630.7" cy="446.5" r="1"/>
			<circle cx="638" cy="446.5" r="1"/>
			<circle cx="645.3" cy="446.5" r="1"/>
			<circle cx="652.7" cy="446.5" r="1"/>
			<circle cx="660" cy="446.5" r="1"/>
		</g>
		<g>
			<g>
				<g>
					<rect x="667" y="440.5" width="1" height="7"/>
				</g>
				<g>
					<rect x="664" y="443.5" width="7" height="1"/>
				</g>
			</g>
			<circle cx="675" cy="446.5" r="1"/>
			<circle cx="682.3" cy="446.5" r="1"/>
			<circle cx="689.7" cy="446.5" r="1"/>
			<circle cx="697" cy="446.5" r="1"/>
			<circle cx="704.3" cy="446.5" r="1"/>
			<circle cx="711.7" cy="446.5" r="1"/>
			<circle cx="719" cy="446.5" r="1"/>
		</g>
		<g>
			<g>
				<g>
					<rect x="726" y="440.5" width="1" height="7"/>
				</g>
				<g>
					<rect x="723" y="443.5" width="7" height="1"/>
				</g>
			</g>
			<circle cx="734" cy="446.5" r="1"/>
			<circle cx="741.3" cy="446.5" r="1"/>
			<circle cx="748.7" cy="446.5" r="1"/>
			<circle cx="756" cy="446.5" r="1"/>
			<circle cx="763.3" cy="446.5" r="1"/>
			<circle cx="770.7" cy="446.5" r="1"/>
			<circle cx="778" cy="446.5" r="1"/>
		</g>
		<g>
			<g>
				<g>
					<rect x="785" y="440.5" width="1" height="7"/>
				</g>
				<g>
					<rect x="782" y="443.5" width="7" height="1"/>
				</g>
			</g>
			<circle cx="793" cy="446.5" r="1"/>
			<circle cx="800.3" cy="446.5" r="1"/>
			<circle cx="807.7" cy="446.5" r="1"/>
			<circle cx="815" cy="446.5" r="1"/>
			<circle cx="822.3" cy="446.5" r="1"/>
			<circle cx="829.7" cy="446.5" r="1"/>
			<circle cx="837" cy="446.5" r="1"/>
		</g>
		<g>
			<g>
				<g>
					<rect x="844" y="440.5" width="1" height="7"/>
				</g>
				<g>
					<rect x="841" y="443.5" width="7" height="1"/>
				</g>
			</g>
			<circle cx="852" cy="446.5" r="1"/>
			<circle cx="859.3" cy="446.5" r="1"/>
			<circle cx="866.7" cy="446.5" r="1"/>
			<circle cx="874" cy="446.5" r="1"/>
			<circle cx="881.3" cy="446.5" r="1"/>
			<circle cx="888.7" cy="446.5" r="1"/>
			<circle cx="896" cy="446.5" r="1"/>
		</g>
		<g>
			<g>
				<g>
					<rect x="903" y="440.5" width="1" height="7"/>
				</g>
				<g>
					<rect x="900" y="443.5" width="7" height="1"/>
				</g>
			</g>
			<circle cx="911" cy="446.5" r="1"/>
			<circle cx="918.3" cy="446.5" r="1"/>
			<circle cx="925.7" cy="446.5" r="1"/>
			<circle cx="933" cy="446.5" r="1"/>
			<circle cx="940.3" cy="446.5" r="1"/>
			<circle cx="947.7" cy="446.5" r="1"/>
			<circle cx="955" cy="446.5" r="1"/>
		</g>
		<g>
			<circle cx="498.4" cy="461.5" r="1"/>
			<circle cx="491" cy="461.5" r="1"/>
			<circle cx="505.7" cy="461.5" r="1"/>
			<circle cx="513.1" cy="461.5" r="1"/>
			<circle cx="520.5" cy="461.5" r="1"/>
			<circle cx="527.8" cy="461.5" r="1"/>
			<circle cx="535.2" cy="461.5" r="1"/>
			<circle cx="542.6" cy="461.5" r="1"/>
			<circle cx="549.9" cy="461.5" r="1"/>
			<circle cx="557.3" cy="461.5" r="1"/>
			<circle cx="564.7" cy="461.5" r="1"/>
			<circle cx="572" cy="461.5" r="1"/>
			<circle cx="579.4" cy="461.5" r="1"/>
			<circle cx="586.7" cy="461.5" r="1"/>
			<circle cx="594.1" cy="461.5" r="1"/>
			<circle cx="601.5" cy="461.5" r="1"/>
			<circle cx="608.8" cy="461.5" r="1"/>
			<circle cx="616.2" cy="461.5" r="1"/>
			<circle cx="623.6" cy="461.5" r="1"/>
			<circle cx="630.9" cy="461.5" r="1"/>
			<circle cx="638.3" cy="461.5" r="1"/>
			<circle cx="645.7" cy="461.5" r="1"/>
			<circle cx="653" cy="461.5" r="1"/>
			<circle cx="660.4" cy="461.5" r="1"/>
			<circle cx="667.8" cy="461.5" r="1"/>
			<circle cx="675.1" cy="461.5" r="1"/>
			<circle cx="682.5" cy="461.5" r="1"/>
			<circle cx="689.9" cy="461.5" r="1"/>
			<circle cx="697.2" cy="461.5" r="1"/>
			<circle cx="704.6" cy="461.5" r="1"/>
			<circle cx="712" cy="461.5" r="1"/>
			<circle cx="719.3" cy="461.5" r="1"/>
			<circle cx="726.7" cy="461.5" r="1"/>
			<circle cx="734" cy="461.5" r="1"/>
			<circle cx="741.4" cy="461.5" r="1"/>
			<circle cx="748.8" cy="461.5" r="1"/>
			<circle cx="756.1" cy="461.5" r="1"/>
			<circle cx="763.5" cy="461.5" r="1"/>
			<circle cx="770.9" cy="461.5" r="1"/>
			<circle cx="778.2" cy="461.5" r="1"/>
			<circle cx="785.6" cy="461.5" r="1"/>
			<circle cx="793" cy="461.5" r="1"/>
			<circle cx="800.3" cy="461.5" r="1"/>
			<circle cx="807.7" cy="461.5" r="1"/>
			<circle cx="815.1" cy="461.5" r="1"/>
			<circle cx="822.4" cy="461.5" r="1"/>
			<circle cx="829.8" cy="461.5" r="1"/>
			<circle cx="837.2" cy="461.5" r="1"/>
			<circle cx="844.5" cy="461.5" r="1"/>
			<circle cx="851.9" cy="461.5" r="1"/>
			<circle cx="859.3" cy="461.5" r="1"/>
			<circle cx="866.6" cy="461.5" r="1"/>
			<circle cx="874" cy="461.5" r="1"/>
			<circle cx="881.3" cy="461.5" r="1"/>
			<circle cx="888.7" cy="461.5" r="1"/>
			<circle cx="896.1" cy="461.5" r="1"/>
			<circle cx="903.4" cy="461.5" r="1"/>
			<circle cx="910.8" cy="461.5" r="1"/>
			<circle cx="918.2" cy="461.5" r="1"/>
			<circle cx="925.5" cy="461.5" r="1"/>
			<circle cx="932.9" cy="461.5" r="1"/>
			<circle cx="940.3" cy="461.5" r="1"/>
			<circle cx="947.6" cy="461.5" r="1"/>
			<circle cx="955" cy="461.5" r="1"/>
		</g>
		<g>
			<circle cx="498.4" cy="476.3" r="1"/>
			<circle cx="491" cy="476.3" r="1"/>
			<circle cx="505.7" cy="476.3" r="1"/>
			<circle cx="513.1" cy="476.3" r="1"/>
			<circle cx="520.5" cy="476.3" r="1"/>
			<circle cx="527.8" cy="476.3" r="1"/>
			<circle cx="535.2" cy="476.3" r="1"/>
			<circle cx="542.6" cy="476.3" r="1"/>
			<circle cx="549.9" cy="476.3" r="1"/>
			<circle cx="557.3" cy="476.3" r="1"/>
			<circle cx="564.7" cy="476.3" r="1"/>
			<circle cx="572" cy="476.3" r="1"/>
			<circle cx="579.4" cy="476.3" r="1"/>
			<circle cx="586.7" cy="476.3" r="1"/>
			<circle cx="594.1" cy="476.3" r="1"/>
			<circle cx="601.5" cy="476.3" r="1"/>
			<circle cx="608.8" cy="476.3" r="1"/>
			<circle cx="616.2" cy="476.3" r="1"/>
			<circle cx="623.6" cy="476.3" r="1"/>
			<circle cx="630.9" cy="476.3" r="1"/>
			<circle cx="638.3" cy="476.3" r="1"/>
			<circle cx="645.7" cy="476.3" r="1"/>
			<circle cx="653" cy="476.3" r="1"/>
			<circle cx="660.4" cy="476.3" r="1"/>
			<circle cx="667.8" cy="476.3" r="1"/>
			<circle cx="675.1" cy="476.3" r="1"/>
			<circle cx="682.5" cy="476.3" r="1"/>
			<circle cx="689.9" cy="476.3" r="1"/>
			<circle cx="697.2" cy="476.3" r="1"/>
			<circle cx="704.6" cy="476.3" r="1"/>
			<circle cx="712" cy="476.3" r="1"/>
			<circle cx="719.3" cy="476.3" r="1"/>
			<circle cx="726.7" cy="476.3" r="1"/>
			<circle cx="734" cy="476.3" r="1"/>
			<circle cx="741.4" cy="476.3" r="1"/>
			<circle cx="748.8" cy="476.3" r="1"/>
			<circle cx="756.1" cy="476.3" r="1"/>
			<circle cx="763.5" cy="476.3" r="1"/>
			<circle cx="770.9" cy="476.3" r="1"/>
			<circle cx="778.2" cy="476.3" r="1"/>
			<circle cx="785.6" cy="476.3" r="1"/>
			<circle cx="793" cy="476.3" r="1"/>
			<circle cx="800.3" cy="476.3" r="1"/>
			<circle cx="807.7" cy="476.3" r="1"/>
			<circle cx="815.1" cy="476.3" r="1"/>
			<circle cx="822.4" cy="476.3" r="1"/>
			<circle cx="829.8" cy="476.3" r="1"/>
			<circle cx="837.2" cy="476.3" r="1"/>
			<circle cx="844.5" cy="476.3" r="1"/>
			<circle cx="851.9" cy="476.3" r="1"/>
			<circle cx="859.3" cy="476.3" r="1"/>
			<circle cx="866.6" cy="476.3" r="1"/>
			<circle cx="874" cy="476.3" r="1"/>
			<circle cx="881.3" cy="476.3" r="1"/>
			<circle cx="888.7" cy="476.3" r="1"/>
			<circle cx="896.1" cy="476.3" r="1"/>
			<circle cx="903.4" cy="476.3" r="1"/>
			<circle cx="910.8" cy="476.3" r="1"/>
			<circle cx="918.2" cy="476.3" r="1"/>
			<circle cx="925.5" cy="476.3" r="1"/>
			<circle cx="932.9" cy="476.3" r="1"/>
			<circle cx="940.3" cy="476.3" r="1"/>
			<circle cx="947.6" cy="476.3" r="1"/>
			<circle cx="955" cy="476.3" r="1"/>
		</g>
		<g>
			<circle cx="498.4" cy="491.2" r="1"/>
			<circle cx="491" cy="491.2" r="1"/>
			<circle cx="505.7" cy="491.2" r="1"/>
			<circle cx="513.1" cy="491.2" r="1"/>
			<circle cx="520.5" cy="491.2" r="1"/>
			<circle cx="527.8" cy="491.2" r="1"/>
			<circle cx="535.2" cy="491.2" r="1"/>
			<circle cx="542.6" cy="491.2" r="1"/>
			<circle cx="549.9" cy="491.2" r="1"/>
			<circle cx="557.3" cy="491.2" r="1"/>
			<circle cx="564.7" cy="491.2" r="1"/>
			<circle cx="572" cy="491.2" r="1"/>
			<circle cx="579.4" cy="491.2" r="1"/>
			<circle cx="586.7" cy="491.2" r="1"/>
			<circle cx="594.1" cy="491.2" r="1"/>
			<circle cx="601.5" cy="491.2" r="1"/>
			<circle cx="608.8" cy="491.2" r="1"/>
			<circle cx="616.2" cy="491.2" r="1"/>
			<circle cx="623.6" cy="491.2" r="1"/>
			<circle cx="630.9" cy="491.2" r="1"/>
			<circle cx="638.3" cy="491.2" r="1"/>
			<circle cx="645.7" cy="491.2" r="1"/>
			<circle cx="653" cy="491.2" r="1"/>
			<circle cx="660.4" cy="491.2" r="1"/>
			<circle cx="667.8" cy="491.2" r="1"/>
			<circle cx="675.1" cy="491.2" r="1"/>
			<circle cx="682.5" cy="491.2" r="1"/>
			<circle cx="689.9" cy="491.2" r="1"/>
			<circle cx="697.2" cy="491.2" r="1"/>
			<circle cx="704.6" cy="491.2" r="1"/>
			<circle cx="712" cy="491.2" r="1"/>
			<circle cx="719.3" cy="491.2" r="1"/>
			<circle cx="726.7" cy="491.2" r="1"/>
			<circle cx="734" cy="491.2" r="1"/>
			<circle cx="741.4" cy="491.2" r="1"/>
			<circle cx="748.8" cy="491.2" r="1"/>
			<circle cx="756.1" cy="491.2" r="1"/>
			<circle cx="763.5" cy="491.2" r="1"/>
			<circle cx="770.9" cy="491.2" r="1"/>
			<circle cx="778.2" cy="491.2" r="1"/>
			<circle cx="785.6" cy="491.2" r="1"/>
			<circle cx="793" cy="491.2" r="1"/>
			<circle cx="800.3" cy="491.2" r="1"/>
			<circle cx="807.7" cy="491.2" r="1"/>
			<circle cx="815.1" cy="491.2" r="1"/>
			<circle cx="822.4" cy="491.2" r="1"/>
			<circle cx="829.8" cy="491.2" r="1"/>
			<circle cx="837.2" cy="491.2" r="1"/>
			<circle cx="844.5" cy="491.2" r="1"/>
			<circle cx="851.9" cy="491.2" r="1"/>
			<circle cx="859.3" cy="491.2" r="1"/>
			<circle cx="866.6" cy="491.2" r="1"/>
			<circle cx="874" cy="491.2" r="1"/>
			<circle cx="881.3" cy="491.2" r="1"/>
			<circle cx="888.7" cy="491.2" r="1"/>
			<circle cx="896.1" cy="491.2" r="1"/>
			<circle cx="903.4" cy="491.2" r="1"/>
			<circle cx="910.8" cy="491.2" r="1"/>
			<circle cx="918.2" cy="491.2" r="1"/>
			<circle cx="925.5" cy="491.2" r="1"/>
			<circle cx="932.9" cy="491.2" r="1"/>
			<circle cx="940.3" cy="491.2" r="1"/>
			<circle cx="947.6" cy="491.2" r="1"/>
			<circle cx="955" cy="491.2" r="1"/>
		</g>
		<g>
			<circle cx="498.4" cy="506" r="1"/>
			<circle cx="491" cy="506" r="1"/>
			<circle cx="505.7" cy="506" r="1"/>
			<circle cx="513.1" cy="506" r="1"/>
			<circle cx="520.5" cy="506" r="1"/>
			<circle cx="527.8" cy="506" r="1"/>
			<circle cx="535.2" cy="506" r="1"/>
			<circle cx="542.6" cy="506" r="1"/>
			<circle cx="549.9" cy="506" r="1"/>
			<circle cx="557.3" cy="506" r="1"/>
			<circle cx="564.7" cy="506" r="1"/>
			<circle cx="572" cy="506" r="1"/>
			<circle cx="579.4" cy="506" r="1"/>
			<circle cx="586.7" cy="506" r="1"/>
			<circle cx="594.1" cy="506" r="1"/>
			<circle cx="601.5" cy="506" r="1"/>
			<circle cx="608.8" cy="506" r="1"/>
			<circle cx="616.2" cy="506" r="1"/>
			<circle cx="623.6" cy="506" r="1"/>
			<circle cx="630.9" cy="506" r="1"/>
			<circle cx="638.3" cy="506" r="1"/>
			<circle cx="645.7" cy="506" r="1"/>
			<circle cx="653" cy="506" r="1"/>
			<circle cx="660.4" cy="506" r="1"/>
			<circle cx="667.8" cy="506" r="1"/>
			<circle cx="675.1" cy="506" r="1"/>
			<circle cx="682.5" cy="506" r="1"/>
			<circle cx="689.9" cy="506" r="1"/>
			<circle cx="697.2" cy="506" r="1"/>
			<circle cx="704.6" cy="506" r="1"/>
			<circle cx="712" cy="506" r="1"/>
			<circle cx="719.3" cy="506" r="1"/>
			<circle cx="726.7" cy="506" r="1"/>
			<circle cx="734" cy="506" r="1"/>
			<circle cx="741.4" cy="506" r="1"/>
			<circle cx="748.8" cy="506" r="1"/>
			<circle cx="756.1" cy="506" r="1"/>
			<circle cx="763.5" cy="506" r="1"/>
			<circle cx="770.9" cy="506" r="1"/>
			<circle cx="778.2" cy="506" r="1"/>
			<circle cx="785.6" cy="506" r="1"/>
			<circle cx="793" cy="506" r="1"/>
			<circle cx="800.3" cy="506" r="1"/>
			<circle cx="807.7" cy="506" r="1"/>
			<circle cx="815.1" cy="506" r="1"/>
			<circle cx="822.4" cy="506" r="1"/>
			<circle cx="829.8" cy="506" r="1"/>
			<circle cx="837.2" cy="506" r="1"/>
			<circle cx="844.5" cy="506" r="1"/>
			<circle cx="851.9" cy="506" r="1"/>
			<circle cx="859.3" cy="506" r="1"/>
			<circle cx="866.6" cy="506" r="1"/>
			<circle cx="874" cy="506" r="1"/>
			<circle cx="881.3" cy="506" r="1"/>
			<circle cx="888.7" cy="506" r="1"/>
			<circle cx="896.1" cy="506" r="1"/>
			<circle cx="903.4" cy="506" r="1"/>
			<circle cx="910.8" cy="506" r="1"/>
			<circle cx="918.2" cy="506" r="1"/>
			<circle cx="925.5" cy="506" r="1"/>
			<circle cx="932.9" cy="506" r="1"/>
			<circle cx="940.3" cy="506" r="1"/>
			<circle cx="947.6" cy="506" r="1"/>
			<circle cx="955" cy="506" r="1"/>
		</g>
		<g>
			<circle cx="498.4" cy="520.8" r="1"/>
			<circle cx="491" cy="520.8" r="1"/>
			<circle cx="505.7" cy="520.8" r="1"/>
			<circle cx="513.1" cy="520.8" r="1"/>
			<circle cx="520.5" cy="520.8" r="1"/>
			<circle cx="527.8" cy="520.8" r="1"/>
			<circle cx="535.2" cy="520.8" r="1"/>
			<circle cx="542.6" cy="520.8" r="1"/>
			<circle cx="549.9" cy="520.8" r="1"/>
			<circle cx="557.3" cy="520.8" r="1"/>
			<circle cx="564.7" cy="520.8" r="1"/>
			<circle cx="572" cy="520.8" r="1"/>
			<circle cx="579.4" cy="520.8" r="1"/>
			<circle cx="586.7" cy="520.8" r="1"/>
			<circle cx="594.1" cy="520.8" r="1"/>
			<circle cx="601.5" cy="520.8" r="1"/>
			<circle cx="608.8" cy="520.8" r="1"/>
			<circle cx="616.2" cy="520.8" r="1"/>
			<circle cx="623.6" cy="520.8" r="1"/>
			<circle cx="630.9" cy="520.8" r="1"/>
			<circle cx="638.3" cy="520.8" r="1"/>
			<circle cx="645.7" cy="520.8" r="1"/>
			<circle cx="653" cy="520.8" r="1"/>
			<circle cx="660.4" cy="520.8" r="1"/>
			<circle cx="667.8" cy="520.8" r="1"/>
			<circle cx="675.1" cy="520.8" r="1"/>
			<circle cx="682.5" cy="520.8" r="1"/>
			<circle cx="689.9" cy="520.8" r="1"/>
			<circle cx="697.2" cy="520.8" r="1"/>
			<circle cx="704.6" cy="520.8" r="1"/>
			<circle cx="712" cy="520.8" r="1"/>
			<circle cx="719.3" cy="520.8" r="1"/>
			<circle cx="726.7" cy="520.8" r="1"/>
			<circle cx="734" cy="520.8" r="1"/>
			<circle cx="741.4" cy="520.8" r="1"/>
			<circle cx="748.8" cy="520.8" r="1"/>
			<circle cx="756.1" cy="520.8" r="1"/>
			<circle cx="763.5" cy="520.8" r="1"/>
			<circle cx="770.9" cy="520.8" r="1"/>
			<circle cx="778.2" cy="520.8" r="1"/>
			<circle cx="785.6" cy="520.8" r="1"/>
			<circle cx="793" cy="520.8" r="1"/>
			<circle cx="800.3" cy="520.8" r="1"/>
			<circle cx="807.7" cy="520.8" r="1"/>
			<circle cx="815.1" cy="520.8" r="1"/>
			<circle cx="822.4" cy="520.8" r="1"/>
			<circle cx="829.8" cy="520.8" r="1"/>
			<circle cx="837.2" cy="520.8" r="1"/>
			<circle cx="844.5" cy="520.8" r="1"/>
			<circle cx="851.9" cy="520.8" r="1"/>
			<circle cx="859.3" cy="520.8" r="1"/>
			<circle cx="866.6" cy="520.8" r="1"/>
			<circle cx="874" cy="520.8" r="1"/>
			<circle cx="881.3" cy="520.8" r="1"/>
			<circle cx="888.7" cy="520.8" r="1"/>
			<circle cx="896.1" cy="520.8" r="1"/>
			<circle cx="903.4" cy="520.8" r="1"/>
			<circle cx="910.8" cy="520.8" r="1"/>
			<circle cx="918.2" cy="520.8" r="1"/>
			<circle cx="925.5" cy="520.8" r="1"/>
			<circle cx="932.9" cy="520.8" r="1"/>
			<circle cx="940.3" cy="520.8" r="1"/>
			<circle cx="947.6" cy="520.8" r="1"/>
			<circle cx="955" cy="520.8" r="1"/>
		</g>
		<g>
			<circle cx="498.4" cy="535.7" r="1"/>
			<circle cx="491" cy="535.7" r="1"/>
			<circle cx="505.7" cy="535.7" r="1"/>
			<circle cx="513.1" cy="535.7" r="1"/>
			<circle cx="520.5" cy="535.7" r="1"/>
			<circle cx="527.8" cy="535.7" r="1"/>
			<circle cx="535.2" cy="535.7" r="1"/>
			<circle cx="542.6" cy="535.7" r="1"/>
			<circle cx="549.9" cy="535.7" r="1"/>
			<circle cx="557.3" cy="535.7" r="1"/>
			<circle cx="564.7" cy="535.7" r="1"/>
			<circle cx="572" cy="535.7" r="1"/>
			<circle cx="579.4" cy="535.7" r="1"/>
			<circle cx="586.7" cy="535.7" r="1"/>
			<circle cx="594.1" cy="535.7" r="1"/>
			<circle cx="601.5" cy="535.7" r="1"/>
			<circle cx="608.8" cy="535.7" r="1"/>
			<circle cx="616.2" cy="535.7" r="1"/>
			<circle cx="623.6" cy="535.7" r="1"/>
			<circle cx="630.9" cy="535.7" r="1"/>
			<circle cx="638.3" cy="535.7" r="1"/>
			<circle cx="645.7" cy="535.7" r="1"/>
			<circle cx="653" cy="535.7" r="1"/>
			<circle cx="660.4" cy="535.7" r="1"/>
			<circle cx="667.8" cy="535.7" r="1"/>
			<circle cx="675.1" cy="535.7" r="1"/>
			<circle cx="682.5" cy="535.7" r="1"/>
			<circle cx="689.9" cy="535.7" r="1"/>
			<circle cx="697.2" cy="535.7" r="1"/>
			<circle cx="704.6" cy="535.7" r="1"/>
			<circle cx="712" cy="535.7" r="1"/>
			<circle cx="719.3" cy="535.7" r="1"/>
			<circle cx="726.7" cy="535.7" r="1"/>
			<circle cx="734" cy="535.7" r="1"/>
			<circle cx="741.4" cy="535.7" r="1"/>
			<circle cx="748.8" cy="535.7" r="1"/>
			<circle cx="756.1" cy="535.7" r="1"/>
			<circle cx="763.5" cy="535.7" r="1"/>
			<circle cx="770.9" cy="535.7" r="1"/>
			<circle cx="778.2" cy="535.7" r="1"/>
			<circle cx="785.6" cy="535.7" r="1"/>
			<circle cx="793" cy="535.7" r="1"/>
			<circle cx="800.3" cy="535.7" r="1"/>
			<circle cx="807.7" cy="535.7" r="1"/>
			<circle cx="815.1" cy="535.7" r="1"/>
			<circle cx="822.4" cy="535.7" r="1"/>
			<circle cx="829.8" cy="535.7" r="1"/>
			<circle cx="837.2" cy="535.7" r="1"/>
			<circle cx="844.5" cy="535.7" r="1"/>
			<circle cx="851.9" cy="535.7" r="1"/>
			<circle cx="859.3" cy="535.7" r="1"/>
			<circle cx="866.6" cy="535.7" r="1"/>
			<circle cx="874" cy="535.7" r="1"/>
			<circle cx="881.3" cy="535.7" r="1"/>
			<circle cx="888.7" cy="535.7" r="1"/>
			<circle cx="896.1" cy="535.7" r="1"/>
			<circle cx="903.4" cy="535.7" r="1"/>
			<circle cx="910.8" cy="535.7" r="1"/>
			<circle cx="918.2" cy="535.7" r="1"/>
			<circle cx="925.5" cy="535.7" r="1"/>
			<circle cx="932.9" cy="535.7" r="1"/>
			<circle cx="940.3" cy="535.7" r="1"/>
			<circle cx="947.6" cy="535.7" r="1"/>
			<circle cx="955" cy="535.7" r="1"/>
		</g>
		<g>
			<circle cx="498.4" cy="550.5" r="1"/>
			<circle cx="491" cy="550.5" r="1"/>
			<circle cx="505.7" cy="550.5" r="1"/>
			<circle cx="513.1" cy="550.5" r="1"/>
			<circle cx="520.5" cy="550.5" r="1"/>
			<circle cx="527.8" cy="550.5" r="1"/>
			<circle cx="535.2" cy="550.5" r="1"/>
			<circle cx="542.6" cy="550.5" r="1"/>
			<circle cx="549.9" cy="550.5" r="1"/>
			<circle cx="557.3" cy="550.5" r="1"/>
			<circle cx="564.7" cy="550.5" r="1"/>
			<circle cx="572" cy="550.5" r="1"/>
			<circle cx="579.4" cy="550.5" r="1"/>
			<circle cx="586.7" cy="550.5" r="1"/>
			<circle cx="594.1" cy="550.5" r="1"/>
			<circle cx="601.5" cy="550.5" r="1"/>
			<circle cx="608.8" cy="550.5" r="1"/>
			<circle cx="616.2" cy="550.5" r="1"/>
			<circle cx="623.6" cy="550.5" r="1"/>
			<circle cx="630.9" cy="550.5" r="1"/>
			<circle cx="638.3" cy="550.5" r="1"/>
			<circle cx="645.7" cy="550.5" r="1"/>
			<circle cx="653" cy="550.5" r="1"/>
			<circle cx="660.4" cy="550.5" r="1"/>
			<circle cx="667.8" cy="550.5" r="1"/>
			<circle cx="675.1" cy="550.5" r="1"/>
			<circle cx="682.5" cy="550.5" r="1"/>
			<circle cx="689.9" cy="550.5" r="1"/>
			<circle cx="697.2" cy="550.5" r="1"/>
			<circle cx="704.6" cy="550.5" r="1"/>
			<circle cx="712" cy="550.5" r="1"/>
			<circle cx="719.3" cy="550.5" r="1"/>
			<circle cx="726.7" cy="550.5" r="1"/>
			<circle cx="734" cy="550.5" r="1"/>
			<circle cx="741.4" cy="550.5" r="1"/>
			<circle cx="748.8" cy="550.5" r="1"/>
			<circle cx="756.1" cy="550.5" r="1"/>
			<circle cx="763.5" cy="550.5" r="1"/>
			<circle cx="770.9" cy="550.5" r="1"/>
			<circle cx="778.2" cy="550.5" r="1"/>
			<circle cx="785.6" cy="550.5" r="1"/>
			<circle cx="793" cy="550.5" r="1"/>
			<circle cx="800.3" cy="550.5" r="1"/>
			<circle cx="807.7" cy="550.5" r="1"/>
			<circle cx="815.1" cy="550.5" r="1"/>
			<circle cx="822.4" cy="550.5" r="1"/>
			<circle cx="829.8" cy="550.5" r="1"/>
			<circle cx="837.2" cy="550.5" r="1"/>
			<circle cx="844.5" cy="550.5" r="1"/>
			<circle cx="851.9" cy="550.5" r="1"/>
			<circle cx="859.3" cy="550.5" r="1"/>
			<circle cx="866.6" cy="550.5" r="1"/>
			<circle cx="874" cy="550.5" r="1"/>
			<circle cx="881.3" cy="550.5" r="1"/>
			<circle cx="888.7" cy="550.5" r="1"/>
			<circle cx="896.1" cy="550.5" r="1"/>
			<circle cx="903.4" cy="550.5" r="1"/>
			<circle cx="910.8" cy="550.5" r="1"/>
			<circle cx="918.2" cy="550.5" r="1"/>
			<circle cx="925.5" cy="550.5" r="1"/>
			<circle cx="932.9" cy="550.5" r="1"/>
			<circle cx="940.3" cy="550.5" r="1"/>
			<circle cx="947.6" cy="550.5" r="1"/>
			<circle cx="955" cy="550.5" r="1"/>
		</g>
	</g>
	<g>
		<g>
			<g>
				<g>
					<rect x="490" y="321.5" width="1" height="7"/>
				</g>
				<g>
					<rect x="487" y="324.5" width="7" height="1"/>
				</g>
			</g>
			<circle cx="498" cy="327.5" r="1"/>
			<circle cx="505.3" cy="327.5" r="1"/>
			<circle cx="512.7" cy="327.5" r="1"/>
			<circle cx="520" cy="327.5" r="1"/>
			<circle cx="527.3" cy="327.5" r="1"/>
			<circle cx="534.7" cy="327.5" r="1"/>
			<circle cx="542" cy="327.5" r="1"/>
		</g>
		<g>
			<g>
				<g>
					<rect x="549" y="321.5" width="1" height="7"/>
				</g>
				<g>
					<rect x="546" y="324.5" width="7" height="1"/>
				</g>
			</g>
			<circle cx="557" cy="327.5" r="1"/>
			<circle cx="564.3" cy="327.5" r="1"/>
			<circle cx="571.7" cy="327.5" r="1"/>
			<circle cx="579" cy="327.5" r="1"/>
			<circle cx="586.3" cy="327.5" r="1"/>
			<circle cx="593.7" cy="327.5" r="1"/>
			<circle cx="601" cy="327.5" r="1"/>
		</g>
		<g>
			<g>
				<g>
					<rect x="608" y="321.5" width="1" height="7"/>
				</g>
				<g>
					<rect x="605" y="324.5" width="7" height="1"/>
				</g>
			</g>
			<circle cx="616" cy="327.5" r="1"/>
			<circle cx="623.3" cy="327.5" r="1"/>
			<circle cx="630.7" cy="327.5" r="1"/>
			<circle cx="638" cy="327.5" r="1"/>
			<circle cx="645.3" cy="327.5" r="1"/>
			<circle cx="652.7" cy="327.5" r="1"/>
			<circle cx="660" cy="327.5" r="1"/>
		</g>
		<g>
			<g>
				<g>
					<rect x="667" y="321.5" width="1" height="7"/>
				</g>
				<g>
					<rect x="664" y="324.5" width="7" height="1"/>
				</g>
			</g>
			<circle cx="675" cy="327.5" r="1"/>
			<circle cx="682.3" cy="327.5" r="1"/>
			<circle cx="689.7" cy="327.5" r="1"/>
			<circle cx="697" cy="327.5" r="1"/>
			<circle cx="704.3" cy="327.5" r="1"/>
			<circle cx="711.7" cy="327.5" r="1"/>
			<circle cx="719" cy="327.5" r="1"/>
		</g>
		<g>
			<g>
				<g>
					<rect x="726" y="321.5" width="1" height="7"/>
				</g>
				<g>
					<rect x="723" y="324.5" width="7" height="1"/>
				</g>
			</g>
			<circle cx="734" cy="327.5" r="1"/>
			<circle cx="741.3" cy="327.5" r="1"/>
			<circle cx="748.7" cy="327.5" r="1"/>
			<circle cx="756" cy="327.5" r="1"/>
			<circle cx="763.3" cy="327.5" r="1"/>
			<circle cx="770.7" cy="327.5" r="1"/>
			<circle cx="778" cy="327.5" r="1"/>
		</g>
		<g>
			<g>
				<g>
					<rect x="785" y="321.5" width="1" height="7"/>
				</g>
				<g>
					<rect x="782" y="324.5" width="7" height="1"/>
				</g>
			</g>
			<circle cx="793" cy="327.5" r="1"/>
			<circle cx="800.3" cy="327.5" r="1"/>
			<circle cx="807.7" cy="327.5" r="1"/>
			<circle cx="815" cy="327.5" r="1"/>
			<circle cx="822.3" cy="327.5" r="1"/>
			<circle cx="829.7" cy="327.5" r="1"/>
			<circle cx="837" cy="327.5" r="1"/>
		</g>
		<g>
			<g>
				<g>
					<rect x="844" y="321.5" width="1" height="7"/>
				</g>
				<g>
					<rect x="841" y="324.5" width="7" height="1"/>
				</g>
			</g>
			<circle cx="852" cy="327.5" r="1"/>
			<circle cx="859.3" cy="327.5" r="1"/>
			<circle cx="866.7" cy="327.5" r="1"/>
			<circle cx="874" cy="327.5" r="1"/>
			<circle cx="881.3" cy="327.5" r="1"/>
			<circle cx="888.7" cy="327.5" r="1"/>
			<circle cx="896" cy="327.5" r="1"/>
		</g>
		<g>
			<g>
				<g>
					<rect x="903" y="321.5" width="1" height="7"/>
				</g>
				<g>
					<rect x="900" y="324.5" width="7" height="1"/>
				</g>
			</g>
			<circle cx="911" cy="327.5" r="1"/>
			<circle cx="918.3" cy="327.5" r="1"/>
			<circle cx="925.7" cy="327.5" r="1"/>
			<circle cx="933" cy="327.5" r="1"/>
			<circle cx="940.3" cy="327.5" r="1"/>
			<circle cx="947.7" cy="327.5" r="1"/>
			<circle cx="955" cy="327.5" r="1"/>
		</g>
		<g>
			<circle cx="498.4" cy="342.5" r="1"/>
			<circle cx="491" cy="342.5" r="1"/>
			<circle cx="505.7" cy="342.5" r="1"/>
			<circle cx="513.1" cy="342.5" r="1"/>
			<circle cx="520.5" cy="342.5" r="1"/>
			<circle cx="527.8" cy="342.5" r="1"/>
			<circle cx="535.2" cy="342.5" r="1"/>
			<circle cx="542.6" cy="342.5" r="1"/>
			<circle cx="549.9" cy="342.5" r="1"/>
			<circle cx="557.3" cy="342.5" r="1"/>
			<circle cx="564.7" cy="342.5" r="1"/>
			<circle cx="572" cy="342.5" r="1"/>
			<circle cx="579.4" cy="342.5" r="1"/>
			<circle cx="586.7" cy="342.5" r="1"/>
			<circle cx="594.1" cy="342.5" r="1"/>
			<circle cx="601.5" cy="342.5" r="1"/>
			<circle cx="608.8" cy="342.5" r="1"/>
			<circle cx="616.2" cy="342.5" r="1"/>
			<circle cx="623.6" cy="342.5" r="1"/>
			<circle cx="630.9" cy="342.5" r="1"/>
			<circle cx="638.3" cy="342.5" r="1"/>
			<circle cx="645.7" cy="342.5" r="1"/>
			<circle cx="653" cy="342.5" r="1"/>
			<circle cx="660.4" cy="342.5" r="1"/>
			<circle cx="667.8" cy="342.5" r="1"/>
			<circle cx="675.1" cy="342.5" r="1"/>
			<circle cx="682.5" cy="342.5" r="1"/>
			<circle cx="689.9" cy="342.5" r="1"/>
			<circle cx="697.2" cy="342.5" r="1"/>
			<circle cx="704.6" cy="342.5" r="1"/>
			<circle cx="712" cy="342.5" r="1"/>
			<circle cx="719.3" cy="342.5" r="1"/>
			<circle cx="726.7" cy="342.5" r="1"/>
			<circle cx="734" cy="342.5" r="1"/>
			<circle cx="741.4" cy="342.5" r="1"/>
			<circle cx="748.8" cy="342.5" r="1"/>
			<circle cx="756.1" cy="342.5" r="1"/>
			<circle cx="763.5" cy="342.5" r="1"/>
			<circle cx="770.9" cy="342.5" r="1"/>
			<circle cx="778.2" cy="342.5" r="1"/>
			<circle cx="785.6" cy="342.5" r="1"/>
			<circle cx="793" cy="342.5" r="1"/>
			<circle cx="800.3" cy="342.5" r="1"/>
			<circle cx="807.7" cy="342.5" r="1"/>
			<circle cx="815.1" cy="342.5" r="1"/>
			<circle cx="822.4" cy="342.5" r="1"/>
			<circle cx="829.8" cy="342.5" r="1"/>
			<circle cx="837.2" cy="342.5" r="1"/>
			<circle cx="844.5" cy="342.5" r="1"/>
			<circle cx="851.9" cy="342.5" r="1"/>
			<circle cx="859.3" cy="342.5" r="1"/>
			<circle cx="866.6" cy="342.5" r="1"/>
			<circle cx="874" cy="342.5" r="1"/>
			<circle cx="881.3" cy="342.5" r="1"/>
			<circle cx="888.7" cy="342.5" r="1"/>
			<circle cx="896.1" cy="342.5" r="1"/>
			<circle cx="903.4" cy="342.5" r="1"/>
			<circle cx="910.8" cy="342.5" r="1"/>
			<circle cx="918.2" cy="342.5" r="1"/>
			<circle cx="925.5" cy="342.5" r="1"/>
			<circle cx="932.9" cy="342.5" r="1"/>
			<circle cx="940.3" cy="342.5" r="1"/>
			<circle cx="947.6" cy="342.5" r="1"/>
			<circle cx="955" cy="342.5" r="1"/>
		</g>
		<g>
			<circle cx="498.4" cy="357.3" r="1"/>
			<circle cx="491" cy="357.3" r="1"/>
			<circle cx="505.7" cy="357.3" r="1"/>
			<circle cx="513.1" cy="357.3" r="1"/>
			<circle cx="520.5" cy="357.3" r="1"/>
			<circle cx="527.8" cy="357.3" r="1"/>
			<circle cx="535.2" cy="357.3" r="1"/>
			<circle cx="542.6" cy="357.3" r="1"/>
			<circle cx="549.9" cy="357.3" r="1"/>
			<circle cx="557.3" cy="357.3" r="1"/>
			<circle cx="564.7" cy="357.3" r="1"/>
			<circle cx="572" cy="357.3" r="1"/>
			<circle cx="579.4" cy="357.3" r="1"/>
			<circle cx="586.7" cy="357.3" r="1"/>
			<circle cx="594.1" cy="357.3" r="1"/>
			<circle cx="601.5" cy="357.3" r="1"/>
			<circle cx="608.8" cy="357.3" r="1"/>
			<circle cx="616.2" cy="357.3" r="1"/>
			<circle cx="623.6" cy="357.3" r="1"/>
			<circle cx="630.9" cy="357.3" r="1"/>
			<circle cx="638.3" cy="357.3" r="1"/>
			<circle cx="645.7" cy="357.3" r="1"/>
			<circle cx="653" cy="357.3" r="1"/>
			<circle cx="660.4" cy="357.3" r="1"/>
			<circle cx="667.8" cy="357.3" r="1"/>
			<circle cx="675.1" cy="357.3" r="1"/>
			<circle cx="682.5" cy="357.3" r="1"/>
			<circle cx="689.9" cy="357.3" r="1"/>
			<circle cx="697.2" cy="357.3" r="1"/>
			<circle cx="704.6" cy="357.3" r="1"/>
			<circle cx="712" cy="357.3" r="1"/>
			<circle cx="719.3" cy="357.3" r="1"/>
			<circle cx="726.7" cy="357.3" r="1"/>
			<circle cx="734" cy="357.3" r="1"/>
			<circle cx="741.4" cy="357.3" r="1"/>
			<circle cx="748.8" cy="357.3" r="1"/>
			<circle cx="756.1" cy="357.3" r="1"/>
			<circle cx="763.5" cy="357.3" r="1"/>
			<circle cx="770.9" cy="357.3" r="1"/>
			<circle cx="778.2" cy="357.3" r="1"/>
			<circle cx="785.6" cy="357.3" r="1"/>
			<circle cx="793" cy="357.3" r="1"/>
			<circle cx="800.3" cy="357.3" r="1"/>
			<circle cx="807.7" cy="357.3" r="1"/>
			<circle cx="815.1" cy="357.3" r="1"/>
			<circle cx="822.4" cy="357.3" r="1"/>
			<circle cx="829.8" cy="357.3" r="1"/>
			<circle cx="837.2" cy="357.3" r="1"/>
			<circle cx="844.5" cy="357.3" r="1"/>
			<circle cx="851.9" cy="357.3" r="1"/>
			<circle cx="859.3" cy="357.3" r="1"/>
			<circle cx="866.6" cy="357.3" r="1"/>
			<circle cx="874" cy="357.3" r="1"/>
			<circle cx="881.3" cy="357.3" r="1"/>
			<circle cx="888.7" cy="357.3" r="1"/>
			<circle cx="896.1" cy="357.3" r="1"/>
			<circle cx="903.4" cy="357.3" r="1"/>
			<circle cx="910.8" cy="357.3" r="1"/>
			<circle cx="918.2" cy="357.3" r="1"/>
			<circle cx="925.5" cy="357.3" r="1"/>
			<circle cx="932.9" cy="357.3" r="1"/>
			<circle cx="940.3" cy="357.3" r="1"/>
			<circle cx="947.6" cy="357.3" r="1"/>
			<circle cx="955" cy="357.3" r="1"/>
		</g>
		<g>
			<circle cx="498.4" cy="372.2" r="1"/>
			<circle cx="491" cy="372.2" r="1"/>
			<circle cx="505.7" cy="372.2" r="1"/>
			<circle cx="513.1" cy="372.2" r="1"/>
			<circle cx="520.5" cy="372.2" r="1"/>
			<circle cx="527.8" cy="372.2" r="1"/>
			<circle cx="535.2" cy="372.2" r="1"/>
			<circle cx="542.6" cy="372.2" r="1"/>
			<circle cx="549.9" cy="372.2" r="1"/>
			<circle cx="557.3" cy="372.2" r="1"/>
			<circle cx="564.7" cy="372.2" r="1"/>
			<circle cx="572" cy="372.2" r="1"/>
			<circle cx="579.4" cy="372.2" r="1"/>
			<circle cx="586.7" cy="372.2" r="1"/>
			<circle cx="594.1" cy="372.2" r="1"/>
			<circle cx="601.5" cy="372.2" r="1"/>
			<circle cx="608.8" cy="372.2" r="1"/>
			<circle cx="616.2" cy="372.2" r="1"/>
			<circle cx="623.6" cy="372.2" r="1"/>
			<circle cx="630.9" cy="372.2" r="1"/>
			<circle cx="638.3" cy="372.2" r="1"/>
			<circle cx="645.7" cy="372.2" r="1"/>
			<circle cx="653" cy="372.2" r="1"/>
			<circle cx="660.4" cy="372.2" r="1"/>
			<circle cx="667.8" cy="372.2" r="1"/>
			<circle cx="675.1" cy="372.2" r="1"/>
			<circle cx="682.5" cy="372.2" r="1"/>
			<circle cx="689.9" cy="372.2" r="1"/>
			<circle cx="697.2" cy="372.2" r="1"/>
			<circle cx="704.6" cy="372.2" r="1"/>
			<circle cx="712" cy="372.2" r="1"/>
			<circle cx="719.3" cy="372.2" r="1"/>
			<circle cx="726.7" cy="372.2" r="1"/>
			<circle cx="734" cy="372.2" r="1"/>
			<circle cx="741.4" cy="372.2" r="1"/>
			<circle cx="748.8" cy="372.2" r="1"/>
			<circle cx="756.1" cy="372.2" r="1"/>
			<circle cx="763.5" cy="372.2" r="1"/>
			<circle cx="770.9" cy="372.2" r="1"/>
			<circle cx="778.2" cy="372.2" r="1"/>
			<circle cx="785.6" cy="372.2" r="1"/>
			<circle cx="793" cy="372.2" r="1"/>
			<circle cx="800.3" cy="372.2" r="1"/>
			<circle cx="807.7" cy="372.2" r="1"/>
			<circle cx="815.1" cy="372.2" r="1"/>
			<circle cx="822.4" cy="372.2" r="1"/>
			<circle cx="829.8" cy="372.2" r="1"/>
			<circle cx="837.2" cy="372.2" r="1"/>
			<circle cx="844.5" cy="372.2" r="1"/>
			<circle cx="851.9" cy="372.2" r="1"/>
			<circle cx="859.3" cy="372.2" r="1"/>
			<circle cx="866.6" cy="372.2" r="1"/>
			<circle cx="874" cy="372.2" r="1"/>
			<circle cx="881.3" cy="372.2" r="1"/>
			<circle cx="888.7" cy="372.2" r="1"/>
			<circle cx="896.1" cy="372.2" r="1"/>
			<circle cx="903.4" cy="372.2" r="1"/>
			<circle cx="910.8" cy="372.2" r="1"/>
			<circle cx="918.2" cy="372.2" r="1"/>
			<circle cx="925.5" cy="372.2" r="1"/>
			<circle cx="932.9" cy="372.2" r="1"/>
			<circle cx="940.3" cy="372.2" r="1"/>
			<circle cx="947.6" cy="372.2" r="1"/>
			<circle cx="955" cy="372.2" r="1"/>
		</g>
		<g>
			<circle cx="498.4" cy="387" r="1"/>
			<circle cx="491" cy="387" r="1"/>
			<circle cx="505.7" cy="387" r="1"/>
			<circle cx="513.1" cy="387" r="1"/>
			<circle cx="520.5" cy="387" r="1"/>
			<circle cx="527.8" cy="387" r="1"/>
			<circle cx="535.2" cy="387" r="1"/>
			<circle cx="542.6" cy="387" r="1"/>
			<circle cx="549.9" cy="387" r="1"/>
			<circle cx="557.3" cy="387" r="1"/>
			<circle cx="564.7" cy="387" r="1"/>
			<circle cx="572" cy="387" r="1"/>
			<circle cx="579.4" cy="387" r="1"/>
			<circle cx="586.7" cy="387" r="1"/>
			<circle cx="594.1" cy="387" r="1"/>
			<circle cx="601.5" cy="387" r="1"/>
			<circle cx="608.8" cy="387" r="1"/>
			<circle cx="616.2" cy="387" r="1"/>
			<circle cx="623.6" cy="387" r="1"/>
			<circle cx="630.9" cy="387" r="1"/>
			<circle cx="638.3" cy="387" r="1"/>
			<circle cx="645.7" cy="387" r="1"/>
			<circle cx="653" cy="387" r="1"/>
			<circle cx="660.4" cy="387" r="1"/>
			<circle cx="667.8" cy="387" r="1"/>
			<circle cx="675.1" cy="387" r="1"/>
			<circle cx="682.5" cy="387" r="1"/>
			<circle cx="689.9" cy="387" r="1"/>
			<circle cx="697.2" cy="387" r="1"/>
			<circle cx="704.6" cy="387" r="1"/>
			<circle cx="712" cy="387" r="1"/>
			<circle cx="719.3" cy="387" r="1"/>
			<circle cx="726.7" cy="387" r="1"/>
			<circle cx="734" cy="387" r="1"/>
			<circle cx="741.4" cy="387" r="1"/>
			<circle cx="748.8" cy="387" r="1"/>
			<circle cx="756.1" cy="387" r="1"/>
			<circle cx="763.5" cy="387" r="1"/>
			<circle cx="770.9" cy="387" r="1"/>
			<circle cx="778.2" cy="387" r="1"/>
			<circle cx="785.6" cy="387" r="1"/>
			<circle cx="793" cy="387" r="1"/>
			<circle cx="800.3" cy="387" r="1"/>
			<circle cx="807.7" cy="387" r="1"/>
			<circle cx="815.1" cy="387" r="1"/>
			<circle cx="822.4" cy="387" r="1"/>
			<circle cx="829.8" cy="387" r="1"/>
			<circle cx="837.2" cy="387" r="1"/>
			<circle cx="844.5" cy="387" r="1"/>
			<circle cx="851.9" cy="387" r="1"/>
			<circle cx="859.3" cy="387" r="1"/>
			<circle cx="866.6" cy="387" r="1"/>
			<circle cx="874" cy="387" r="1"/>
			<circle cx="881.3" cy="387" r="1"/>
			<circle cx="888.7" cy="387" r="1"/>
			<circle cx="896.1" cy="387" r="1"/>
			<circle cx="903.4" cy="387" r="1"/>
			<circle cx="910.8" cy="387" r="1"/>
			<circle cx="918.2" cy="387" r="1"/>
			<circle cx="925.5" cy="387" r="1"/>
			<circle cx="932.9" cy="387" r="1"/>
			<circle cx="940.3" cy="387" r="1"/>
			<circle cx="947.6" cy="387" r="1"/>
			<circle cx="955" cy="387" r="1"/>
		</g>
		<g>
			<circle cx="498.4" cy="401.8" r="1"/>
			<circle cx="491" cy="401.8" r="1"/>
			<circle cx="505.7" cy="401.8" r="1"/>
			<circle cx="513.1" cy="401.8" r="1"/>
			<circle cx="520.5" cy="401.8" r="1"/>
			<circle cx="527.8" cy="401.8" r="1"/>
			<circle cx="535.2" cy="401.8" r="1"/>
			<circle cx="542.6" cy="401.8" r="1"/>
			<circle cx="549.9" cy="401.8" r="1"/>
			<circle cx="557.3" cy="401.8" r="1"/>
			<circle cx="564.7" cy="401.8" r="1"/>
			<circle cx="572" cy="401.8" r="1"/>
			<circle cx="579.4" cy="401.8" r="1"/>
			<circle cx="586.7" cy="401.8" r="1"/>
			<circle cx="594.1" cy="401.8" r="1"/>
			<circle cx="601.5" cy="401.8" r="1"/>
			<circle cx="608.8" cy="401.8" r="1"/>
			<circle cx="616.2" cy="401.8" r="1"/>
			<circle cx="623.6" cy="401.8" r="1"/>
			<circle cx="630.9" cy="401.8" r="1"/>
			<circle cx="638.3" cy="401.8" r="1"/>
			<circle cx="645.7" cy="401.8" r="1"/>
			<circle cx="653" cy="401.8" r="1"/>
			<circle cx="660.4" cy="401.8" r="1"/>
			<circle cx="667.8" cy="401.8" r="1"/>
			<circle cx="675.1" cy="401.8" r="1"/>
			<circle cx="682.5" cy="401.8" r="1"/>
			<circle cx="689.9" cy="401.8" r="1"/>
			<circle cx="697.2" cy="401.8" r="1"/>
			<circle cx="704.6" cy="401.8" r="1"/>
			<circle cx="712" cy="401.8" r="1"/>
			<circle cx="719.3" cy="401.8" r="1"/>
			<circle cx="726.7" cy="401.8" r="1"/>
			<circle cx="734" cy="401.8" r="1"/>
			<circle cx="741.4" cy="401.8" r="1"/>
			<circle cx="748.8" cy="401.8" r="1"/>
			<circle cx="756.1" cy="401.8" r="1"/>
			<circle cx="763.5" cy="401.8" r="1"/>
			<circle cx="770.9" cy="401.8" r="1"/>
			<circle cx="778.2" cy="401.8" r="1"/>
			<circle cx="785.6" cy="401.8" r="1"/>
			<circle cx="793" cy="401.8" r="1"/>
			<circle cx="800.3" cy="401.8" r="1"/>
			<circle cx="807.7" cy="401.8" r="1"/>
			<circle cx="815.1" cy="401.8" r="1"/>
			<circle cx="822.4" cy="401.8" r="1"/>
			<circle cx="829.8" cy="401.8" r="1"/>
			<circle cx="837.2" cy="401.8" r="1"/>
			<circle cx="844.5" cy="401.8" r="1"/>
			<circle cx="851.9" cy="401.8" r="1"/>
			<circle cx="859.3" cy="401.8" r="1"/>
			<circle cx="866.6" cy="401.8" r="1"/>
			<circle cx="874" cy="401.8" r="1"/>
			<circle cx="881.3" cy="401.8" r="1"/>
			<circle cx="888.7" cy="401.8" r="1"/>
			<circle cx="896.1" cy="401.8" r="1"/>
			<circle cx="903.4" cy="401.8" r="1"/>
			<circle cx="910.8" cy="401.8" r="1"/>
			<circle cx="918.2" cy="401.8" r="1"/>
			<circle cx="925.5" cy="401.8" r="1"/>
			<circle cx="932.9" cy="401.8" r="1"/>
			<circle cx="940.3" cy="401.8" r="1"/>
			<circle cx="947.6" cy="401.8" r="1"/>
			<circle cx="955" cy="401.8" r="1"/>
		</g>
		<g>
			<circle cx="498.4" cy="416.7" r="1"/>
			<circle cx="491" cy="416.7" r="1"/>
			<circle cx="505.7" cy="416.7" r="1"/>
			<circle cx="513.1" cy="416.7" r="1"/>
			<circle cx="520.5" cy="416.7" r="1"/>
			<circle cx="527.8" cy="416.7" r="1"/>
			<circle cx="535.2" cy="416.7" r="1"/>
			<circle cx="542.6" cy="416.7" r="1"/>
			<circle cx="549.9" cy="416.7" r="1"/>
			<circle cx="557.3" cy="416.7" r="1"/>
			<circle cx="564.7" cy="416.7" r="1"/>
			<circle cx="572" cy="416.7" r="1"/>
			<circle cx="579.4" cy="416.7" r="1"/>
			<circle cx="586.7" cy="416.7" r="1"/>
			<circle cx="594.1" cy="416.7" r="1"/>
			<circle cx="601.5" cy="416.7" r="1"/>
			<circle cx="608.8" cy="416.7" r="1"/>
			<circle cx="616.2" cy="416.7" r="1"/>
			<circle cx="623.6" cy="416.7" r="1"/>
			<circle cx="630.9" cy="416.7" r="1"/>
			<circle cx="638.3" cy="416.7" r="1"/>
			<circle cx="645.7" cy="416.7" r="1"/>
			<circle cx="653" cy="416.7" r="1"/>
			<circle cx="660.4" cy="416.7" r="1"/>
			<circle cx="667.8" cy="416.7" r="1"/>
			<circle cx="675.1" cy="416.7" r="1"/>
			<circle cx="682.5" cy="416.7" r="1"/>
			<circle cx="689.9" cy="416.7" r="1"/>
			<circle cx="697.2" cy="416.7" r="1"/>
			<circle cx="704.6" cy="416.7" r="1"/>
			<circle cx="712" cy="416.7" r="1"/>
			<circle cx="719.3" cy="416.7" r="1"/>
			<circle cx="726.7" cy="416.7" r="1"/>
			<circle cx="734" cy="416.7" r="1"/>
			<circle cx="741.4" cy="416.7" r="1"/>
			<circle cx="748.8" cy="416.7" r="1"/>
			<circle cx="756.1" cy="416.7" r="1"/>
			<circle cx="763.5" cy="416.7" r="1"/>
			<circle cx="770.9" cy="416.7" r="1"/>
			<circle cx="778.2" cy="416.7" r="1"/>
			<circle cx="785.6" cy="416.7" r="1"/>
			<circle cx="793" cy="416.7" r="1"/>
			<circle cx="800.3" cy="416.7" r="1"/>
			<circle cx="807.7" cy="416.7" r="1"/>
			<circle cx="815.1" cy="416.7" r="1"/>
			<circle cx="822.4" cy="416.7" r="1"/>
			<circle cx="829.8" cy="416.7" r="1"/>
			<circle cx="837.2" cy="416.7" r="1"/>
			<circle cx="844.5" cy="416.7" r="1"/>
			<circle cx="851.9" cy="416.7" r="1"/>
			<circle cx="859.3" cy="416.7" r="1"/>
			<circle cx="866.6" cy="416.7" r="1"/>
			<circle cx="874" cy="416.7" r="1"/>
			<circle cx="881.3" cy="416.7" r="1"/>
			<circle cx="888.7" cy="416.7" r="1"/>
			<circle cx="896.1" cy="416.7" r="1"/>
			<circle cx="903.4" cy="416.7" r="1"/>
			<circle cx="910.8" cy="416.7" r="1"/>
			<circle cx="918.2" cy="416.7" r="1"/>
			<circle cx="925.5" cy="416.7" r="1"/>
			<circle cx="932.9" cy="416.7" r="1"/>
			<circle cx="940.3" cy="416.7" r="1"/>
			<circle cx="947.6" cy="416.7" r="1"/>
			<circle cx="955" cy="416.7" r="1"/>
		</g>
		<g>
			<circle cx="498.4" cy="431.5" r="1"/>
			<circle cx="491" cy="431.5" r="1"/>
			<circle cx="505.7" cy="431.5" r="1"/>
			<circle cx="513.1" cy="431.5" r="1"/>
			<circle cx="520.5" cy="431.5" r="1"/>
			<circle cx="527.8" cy="431.5" r="1"/>
			<circle cx="535.2" cy="431.5" r="1"/>
			<circle cx="542.6" cy="431.5" r="1"/>
			<circle cx="549.9" cy="431.5" r="1"/>
			<circle cx="557.3" cy="431.5" r="1"/>
			<circle cx="564.7" cy="431.5" r="1"/>
			<circle cx="572" cy="431.5" r="1"/>
			<circle cx="579.4" cy="431.5" r="1"/>
			<circle cx="586.7" cy="431.5" r="1"/>
			<circle cx="594.1" cy="431.5" r="1"/>
			<circle cx="601.5" cy="431.5" r="1"/>
			<circle cx="608.8" cy="431.5" r="1"/>
			<circle cx="616.2" cy="431.5" r="1"/>
			<circle cx="623.6" cy="431.5" r="1"/>
			<circle cx="630.9" cy="431.5" r="1"/>
			<circle cx="638.3" cy="431.5" r="1"/>
			<circle cx="645.7" cy="431.5" r="1"/>
			<circle cx="653" cy="431.5" r="1"/>
			<circle cx="660.4" cy="431.5" r="1"/>
			<circle cx="667.8" cy="431.5" r="1"/>
			<circle cx="675.1" cy="431.5" r="1"/>
			<circle cx="682.5" cy="431.5" r="1"/>
			<circle cx="689.9" cy="431.5" r="1"/>
			<circle cx="697.2" cy="431.5" r="1"/>
			<circle cx="704.6" cy="431.5" r="1"/>
			<circle cx="712" cy="431.5" r="1"/>
			<circle cx="719.3" cy="431.5" r="1"/>
			<circle cx="726.7" cy="431.5" r="1"/>
			<circle cx="734" cy="431.5" r="1"/>
			<circle cx="741.4" cy="431.5" r="1"/>
			<circle cx="748.8" cy="431.5" r="1"/>
			<circle cx="756.1" cy="431.5" r="1"/>
			<circle cx="763.5" cy="431.5" r="1"/>
			<circle cx="770.9" cy="431.5" r="1"/>
			<circle cx="778.2" cy="431.5" r="1"/>
			<circle cx="785.6" cy="431.5" r="1"/>
			<circle cx="793" cy="431.5" r="1"/>
			<circle cx="800.3" cy="431.5" r="1"/>
			<circle cx="807.7" cy="431.5" r="1"/>
			<circle cx="815.1" cy="431.5" r="1"/>
			<circle cx="822.4" cy="431.5" r="1"/>
			<circle cx="829.8" cy="431.5" r="1"/>
			<circle cx="837.2" cy="431.5" r="1"/>
			<circle cx="844.5" cy="431.5" r="1"/>
			<circle cx="851.9" cy="431.5" r="1"/>
			<circle cx="859.3" cy="431.5" r="1"/>
			<circle cx="866.6" cy="431.5" r="1"/>
			<circle cx="874" cy="431.5" r="1"/>
			<circle cx="881.3" cy="431.5" r="1"/>
			<circle cx="888.7" cy="431.5" r="1"/>
			<circle cx="896.1" cy="431.5" r="1"/>
			<circle cx="903.4" cy="431.5" r="1"/>
			<circle cx="910.8" cy="431.5" r="1"/>
			<circle cx="918.2" cy="431.5" r="1"/>
			<circle cx="925.5" cy="431.5" r="1"/>
			<circle cx="932.9" cy="431.5" r="1"/>
			<circle cx="940.3" cy="431.5" r="1"/>
			<circle cx="947.6" cy="431.5" r="1"/>
			<circle cx="955" cy="431.5" r="1"/>
		</g>
	</g>
	<line class="st0" x1="757.1" y1="236.5" x2="757.1" y2="253.5"/>
	<line class="st0" x1="723.5" y1="236.5" x2="723.5" y2="253.5"/>
	<line class="st0" x1="894.5" y1="236.5" x2="894.5" y2="253.5"/>
	<line class="st0" x1="689.9" y1="236.5" x2="689.9" y2="253.5"/>
	<g>
		<g>
			<rect x="925" y="241.5" width="1" height="7"/>
		</g>
		<g>
			<rect x="922" y="244.5" width="7" height="1"/>
		</g>
	</g>
	<g>
		<g>
			<rect x="857" y="244.5" width="7" height="1"/>
		</g>
	</g>
	<g>
		<path d="M827.7,189.5v-7.3h2.6c0.8,0,1.4,0.1,1.7,0.4c0.4,0.3,0.6,0.7,0.6,1.3v0.4c0,0.4-0.1,0.6-0.3,0.8
			c-0.2,0.2-0.4,0.3-0.8,0.4v0.3c0.4,0,0.7,0.2,0.9,0.4s0.3,0.6,0.3,1v0.4c0,0.6-0.2,1.1-0.6,1.4s-1.1,0.5-1.9,0.5H827.7z
			 M829,185.2h1.1c0.4,0,0.6-0.1,0.8-0.2c0.2-0.1,0.2-0.3,0.2-0.6v-0.3c0-0.3-0.1-0.5-0.2-0.6c-0.2-0.1-0.4-0.2-0.8-0.2H829V185.2z
			 M829,188.5h1.2c0.4,0,0.7-0.1,0.9-0.2s0.3-0.4,0.3-0.7v-0.4c0-0.3-0.1-0.6-0.3-0.7s-0.5-0.2-0.9-0.2H829V188.5z"/>
		<path d="M834,189.5v-7.3h2.7c0.8,0,1.4,0.2,1.8,0.5c0.4,0.3,0.6,0.8,0.6,1.5v0.9c0,0.7-0.2,1.2-0.6,1.5c-0.4,0.3-1,0.5-1.8,0.5
			h-1.3v2.4H834z M835.4,186.1h1.3c0.4,0,0.7-0.1,0.9-0.2c0.2-0.1,0.3-0.4,0.3-0.8v-0.8c0-0.4-0.1-0.6-0.3-0.8
			c-0.2-0.1-0.5-0.2-0.9-0.2h-1.3V186.1z"/>
		<path d="M842.4,187.5l-1.1-3.2l0.1,5.2h-1.2v-7.3h1.5l1.3,3.9l1.2-3.9h1.4v7.3h-1.2l0.1-5.2l-1.1,3.1H842.4z"/>
		<path d="M855.6,186c-0.3,0-0.6-0.1-0.8-0.2c-0.2-0.1-0.3-0.3-0.3-0.6v-0.5c0-0.3,0.1-0.5,0.3-0.6s0.5-0.2,0.8-0.2
			c0.3,0,0.6,0.1,0.8,0.2s0.3,0.4,0.3,0.6v0.5c0,0.3-0.1,0.5-0.3,0.6C856.2,185.9,856,186,855.6,186z M855.6,189.6
			c-0.3,0-0.6-0.1-0.8-0.2c-0.2-0.1-0.3-0.3-0.3-0.6v-0.5c0-0.3,0.1-0.5,0.3-0.6c0.2-0.1,0.5-0.2,0.8-0.2c0.3,0,0.6,0.1,0.8,0.2
			c0.2,0.1,0.3,0.4,0.3,0.6v0.5c0,0.3-0.1,0.5-0.3,0.6C856.2,189.5,856,189.6,855.6,189.6z"/>
	</g>
	<g>
		<path d="M487.8,189.5v-1h1.7v-3.4h-1.7v-1h3.1v4.4h1.7v1H487.8z M490.2,183.1c-0.3,0-0.5,0-0.7-0.1c-0.2-0.1-0.3-0.2-0.3-0.5v-0.1
			c0-0.2,0.1-0.4,0.3-0.5c0.2-0.1,0.4-0.1,0.7-0.1s0.5,0,0.7,0.1c0.2,0.1,0.3,0.3,0.3,0.5v0.1c0,0.2-0.1,0.4-0.3,0.5
			S490.5,183.1,490.2,183.1z"/>
		<path d="M494.1,189.5V184h1.4v1h0.3c0.1-0.3,0.4-0.6,0.7-0.8s0.6-0.3,1-0.3c0.5,0,0.9,0.2,1.2,0.5c0.3,0.3,0.4,0.7,0.4,1.3v3.8
			h-1.4V186c0-0.3-0.1-0.5-0.2-0.7c-0.1-0.2-0.3-0.2-0.6-0.2c-0.2,0-0.5,0.1-0.7,0.2s-0.5,0.3-0.7,0.6v3.7H494.1z"/>
		<path d="M503.1,189.6c-0.2,0-0.4,0-0.6-0.1c-0.2,0-0.4-0.1-0.6-0.2v2h-1.4V184h1.4v1h0.3c0.1-0.3,0.4-0.6,0.7-0.8s0.6-0.3,1-0.3
			c0.5,0,0.9,0.2,1.2,0.5c0.3,0.3,0.4,0.8,0.4,1.4v1.6c0,0.6-0.2,1.1-0.6,1.5S503.8,189.6,503.1,189.6z M502.9,188.5
			c0.4,0,0.7-0.1,0.8-0.2c0.2-0.2,0.3-0.4,0.3-0.8v-1.4c0-0.3-0.1-0.6-0.2-0.8s-0.4-0.2-0.6-0.2c-0.2,0-0.5,0.1-0.7,0.2
			c-0.2,0.1-0.4,0.3-0.7,0.5v2.5c0.2,0.1,0.3,0.2,0.5,0.2C502.5,188.5,502.7,188.5,502.9,188.5z"/>
		<path d="M508.5,189.6c-0.5,0-0.9-0.2-1.2-0.5c-0.3-0.3-0.5-0.7-0.5-1.3V184h1.4v3.4c0,0.3,0.1,0.6,0.2,0.7
			c0.1,0.2,0.3,0.2,0.6,0.2c0.2,0,0.5-0.1,0.7-0.2c0.2-0.1,0.5-0.4,0.7-0.6V184h1.4v5.5h-1.4v-1h-0.3c-0.1,0.3-0.4,0.6-0.7,0.8
			C509.1,189.5,508.8,189.6,508.5,189.6z"/>
		<path d="M516.6,189.6c-0.7,0-1.2-0.2-1.6-0.5c-0.4-0.3-0.6-0.8-0.6-1.4v-2.6H513v-1h1.4v-1.8h1.4v1.8h2.2v1h-2.2v2.4
			c0,0.3,0.1,0.6,0.2,0.8c0.2,0.2,0.4,0.2,0.7,0.2c0.2,0,0.4,0,0.6,0c0.2,0,0.4-0.1,0.6-0.1l0.2,1c-0.2,0.1-0.4,0.1-0.6,0.2
			S516.9,189.6,516.6,189.6z"/>
	</g>
	<g>
		<path d="M489,228.5h-1.4v-7.3h2.9c0.8,0,1.4,0.2,1.7,0.5s0.6,0.8,0.6,1.5v0.6c0,0.5-0.1,1-0.4,1.3c-0.3,0.3-0.6,0.5-1.1,0.6
			l1.7,2.8h-1.5l-1.6-2.7H489V228.5z M489,224.7h1.4c0.4,0,0.7-0.1,0.9-0.2c0.2-0.1,0.3-0.4,0.3-0.8v-0.5c0-0.3-0.1-0.6-0.3-0.7
			s-0.5-0.2-0.9-0.2H489V224.7z"/>
		<path d="M499.1,227.3c-0.2,0.5-0.5,0.8-0.8,1c-0.4,0.2-0.9,0.3-1.7,0.3c-0.7,0-1.3-0.2-1.8-0.5c-0.5-0.3-0.7-0.9-0.7-1.6v-1.5
			c0-0.7,0.2-1.2,0.7-1.6c0.4-0.4,1-0.5,1.8-0.5c0.8,0,1.4,0.2,1.8,0.5c0.4,0.4,0.7,0.9,0.7,1.6v1h-3.5v0.5c0,0.4,0.1,0.6,0.3,0.8
			c0.2,0.2,0.5,0.3,0.9,0.3c0.3,0,0.6-0.1,0.8-0.2c0.2-0.1,0.4-0.3,0.5-0.6L499.1,227.3z M495.5,225v0.3h2.2V225
			c0-0.4-0.1-0.7-0.3-0.9c-0.2-0.2-0.4-0.3-0.8-0.3s-0.7,0.1-0.8,0.3C495.5,224.3,495.5,224.6,495.5,225z"/>
		<path d="M505.7,228.8c0,0.5-0.2,0.9-0.6,1.2c-0.4,0.3-0.8,0.4-1.4,0.4h-1.6c-0.6,0-1.1-0.1-1.5-0.4s-0.5-0.5-0.5-1
			c0-0.3,0.1-0.5,0.3-0.7c0.2-0.2,0.4-0.3,0.7-0.3v-0.2c-0.2-0.1-0.4-0.2-0.5-0.3c-0.1-0.1-0.2-0.4-0.2-0.6c0-0.3,0.1-0.6,0.3-0.8
			c0.2-0.2,0.5-0.3,0.9-0.4v-0.2c-0.3-0.1-0.5-0.2-0.7-0.4c-0.1-0.2-0.2-0.4-0.2-0.6v-0.1c0-0.4,0.2-0.8,0.6-1.1
			c0.4-0.3,0.9-0.4,1.5-0.4h3v0.9l-1.5-0.2v0.2c0.2,0.1,0.4,0.2,0.5,0.4s0.2,0.4,0.2,0.6v0.1c0,0.4-0.2,0.8-0.5,1
			c-0.4,0.2-0.9,0.4-1.5,0.4h-0.9c-0.2,0-0.3,0-0.4,0.1c-0.1,0.1-0.1,0.2-0.1,0.4c0,0.2,0.1,0.3,0.2,0.4c0.1,0.1,0.3,0.1,0.5,0.1
			h1.8c0.6,0,1,0.1,1.4,0.4C505.5,228,505.7,228.3,505.7,228.8z M502.1,229.5h1.7c0.2,0,0.4,0,0.6-0.1s0.2-0.2,0.2-0.5
			s-0.1-0.4-0.2-0.5s-0.3-0.1-0.5-0.1h-2.4v0.5c0,0.2,0.1,0.4,0.2,0.5C501.7,229.5,501.9,229.5,502.1,229.5z M502.8,225.6
			c0.3,0,0.5-0.1,0.7-0.2c0.1-0.1,0.2-0.3,0.2-0.5v-0.4c0-0.2-0.1-0.4-0.2-0.5s-0.4-0.2-0.7-0.2c-0.3,0-0.5,0.1-0.7,0.2
			s-0.2,0.3-0.2,0.5v0.4c0,0.2,0.1,0.4,0.2,0.5C502.2,225.6,502.4,225.6,502.8,225.6z"/>
		<path d="M506.8,228.5v-7.3h5.1v1.1h-3.7v1.7h3.3v1.1h-3.3v2.3h3.7v1.1H506.8z"/>
		<path d="M516.8,228.5l-1.2-1.8l-1.2,1.8H513l1.9-2.8l-1.8-2.7h1.4l1.2,1.7l1.1-1.7h1.4l-1.9,2.6l1.9,2.8H516.8z"/>
		<path d="M522.2,228.6c-0.2,0-0.4,0-0.6-0.1c-0.2,0-0.4-0.1-0.6-0.2v2h-1.4V223h1.4v1h0.3c0.1-0.3,0.4-0.6,0.7-0.8s0.6-0.3,1-0.3
			c0.5,0,0.9,0.2,1.2,0.5c0.3,0.3,0.4,0.8,0.4,1.4v1.6c0,0.6-0.2,1.1-0.6,1.5S522.9,228.6,522.2,228.6z M522,227.5
			c0.4,0,0.7-0.1,0.8-0.2c0.2-0.2,0.3-0.4,0.3-0.8v-1.4c0-0.3-0.1-0.6-0.2-0.8s-0.4-0.2-0.6-0.2c-0.2,0-0.5,0.1-0.7,0.2
			c-0.2,0.1-0.4,0.3-0.7,0.5v2.5c0.2,0.1,0.3,0.2,0.5,0.2C521.6,227.5,521.8,227.5,522,227.5z"/>
	</g>
	<g>
		<path d="M588.6,287.6c-0.9,0-1.5-0.2-2-0.6s-0.7-0.9-0.7-1.7v-1.6c0-0.8,0.2-1.3,0.7-1.7c0.4-0.4,1.1-0.6,2-0.6
			c0.8,0,1.4,0.2,1.8,0.5c0.4,0.4,0.6,0.9,0.7,1.5l-1,0.1c0-0.4-0.2-0.7-0.4-0.9c-0.2-0.2-0.6-0.3-1.1-0.3c-0.5,0-1,0.1-1.2,0.3
			c-0.3,0.2-0.4,0.6-0.4,1.1v1.6c0,0.5,0.1,0.8,0.4,1c0.3,0.2,0.7,0.3,1.2,0.3c0.5,0,0.8-0.1,1.1-0.3c0.2-0.2,0.4-0.4,0.4-0.8l1,0.1
			c0,0.6-0.3,1.1-0.7,1.4C590,287.4,589.4,287.6,588.6,287.6z"/>
		<path d="M593.5,283.2v4.3h-0.9v-6h0.9v0.8h0.2c0.1-0.3,0.3-0.5,0.5-0.7c0.2-0.2,0.4-0.2,0.7-0.2c0.3,0,0.5,0.1,0.7,0.2
			c0.2,0.2,0.3,0.4,0.4,0.7h0.2c0.1-0.3,0.3-0.5,0.5-0.7c0.2-0.2,0.4-0.2,0.7-0.2c0.3,0,0.6,0.1,0.8,0.4s0.3,0.6,0.3,1.1v4.6h-0.9
			v-4.4c0-0.3,0-0.5-0.1-0.7s-0.2-0.2-0.4-0.2c-0.1,0-0.3,0.1-0.5,0.3c-0.2,0.2-0.4,0.4-0.6,0.8v4.3H595v-4.4c0-0.3,0-0.5-0.1-0.7
			s-0.2-0.2-0.4-0.2c-0.1,0-0.3,0.1-0.5,0.3C593.9,282.6,593.7,282.9,593.5,283.2z"/>
		<path d="M603.7,286.5c-0.2,0.3-0.4,0.6-0.7,0.8c-0.3,0.2-0.7,0.3-1,0.3c-0.6,0-1.1-0.2-1.4-0.6s-0.5-1-0.5-1.7v-1.6
			c0-0.7,0.2-1.3,0.7-1.7s1.1-0.6,1.9-0.6c0.2,0,0.5,0,0.7,0.1c0.2,0,0.5,0.1,0.7,0.2v-2.2h1v8h-1v-1H603.7z M602.2,286.6
			c0.3,0,0.6-0.1,0.9-0.3s0.6-0.4,0.9-0.8v-2.9c-0.2-0.1-0.4-0.2-0.7-0.3s-0.5-0.1-0.8-0.1c-0.5,0-0.9,0.1-1.2,0.4
			c-0.3,0.2-0.4,0.6-0.4,1.1v1.6c0,0.4,0.1,0.8,0.3,1C601.5,286.5,601.8,286.6,602.2,286.6z"/>
		<path d="M616.5,287.6c-0.8,0-1.4-0.2-1.9-0.6c-0.4-0.4-0.6-1-0.6-1.7v-1.6c0-0.7,0.2-1.3,0.7-1.7c0.4-0.4,1.1-0.6,1.9-0.6
			c0.8,0,1.4,0.2,1.8,0.6c0.4,0.4,0.6,1,0.6,1.7v1.6c0,0.7-0.2,1.3-0.6,1.7C617.9,287.4,617.3,287.6,616.5,287.6z M616.5,286.7
			c0.5,0,0.9-0.1,1.1-0.3c0.2-0.2,0.4-0.6,0.4-1v-1.6c0-0.5-0.1-0.8-0.4-1.1s-0.6-0.3-1.1-0.3s-0.9,0.1-1.1,0.3
			c-0.2,0.2-0.4,0.6-0.4,1.1v1.6c0,0.5,0.1,0.8,0.4,1C615.6,286.6,616,286.7,616.5,286.7z"/>
		<path d="M621.5,287.5v-6h1v1h0.3c0.1-0.4,0.4-0.7,0.6-0.8c0.3-0.2,0.6-0.3,1-0.3c0.4,0,0.8,0.1,1.1,0.4c0.3,0.3,0.5,0.7,0.5,1.3
			v0.9h-1v-0.5c0-0.4-0.1-0.7-0.3-0.8c-0.2-0.2-0.4-0.3-0.8-0.3c-0.3,0-0.6,0.1-0.9,0.2s-0.5,0.4-0.7,0.7v4.2H621.5z"/>
		<path d="M637.6,287.6c-0.9,0-1.5-0.2-2-0.6s-0.7-0.9-0.7-1.7v-1.6c0-0.8,0.2-1.3,0.7-1.7c0.4-0.4,1.1-0.6,2-0.6
			c0.8,0,1.4,0.2,1.8,0.5c0.4,0.4,0.6,0.9,0.7,1.5l-1,0.1c0-0.4-0.2-0.7-0.4-0.9c-0.2-0.2-0.6-0.3-1.1-0.3c-0.5,0-1,0.1-1.2,0.3
			c-0.3,0.2-0.4,0.6-0.4,1.1v1.6c0,0.5,0.1,0.8,0.4,1c0.3,0.2,0.7,0.3,1.2,0.3c0.5,0,0.8-0.1,1.1-0.3c0.2-0.2,0.4-0.4,0.4-0.8l1,0.1
			c0,0.6-0.3,1.1-0.7,1.4C639,287.4,638.4,287.6,637.6,287.6z"/>
		<path d="M645.5,287.6c-0.7,0-1.2-0.2-1.5-0.5c-0.4-0.3-0.5-0.8-0.5-1.5v-3.2h-1.7v-0.9h1.7v-2h1v2h2.6v0.9h-2.6v3.1
			c0,0.4,0.1,0.7,0.3,0.9c0.2,0.2,0.5,0.3,0.9,0.3c0.3,0,0.5,0,0.7-0.1c0.2,0,0.4-0.1,0.6-0.1l0.2,0.9c-0.2,0.1-0.5,0.1-0.7,0.2
			C646.1,287.6,645.8,287.6,645.5,287.6z"/>
		<path d="M649.5,287.5v-6h1v1h0.3c0.1-0.4,0.4-0.7,0.6-0.8c0.3-0.2,0.6-0.3,1-0.3c0.4,0,0.8,0.1,1.1,0.4c0.3,0.3,0.5,0.7,0.5,1.3
			v0.9h-1v-0.5c0-0.4-0.1-0.7-0.3-0.8c-0.2-0.2-0.4-0.3-0.8-0.3c-0.3,0-0.6,0.1-0.9,0.2s-0.5,0.4-0.7,0.7v4.2H649.5z"/>
		<path d="M656,287.5v-0.9h2v-6.2h-2v-0.9h3v7.1h2v0.9H656z"/>
		<path d="M672,287.1v-2.6h-2.3v-1h2.3v-2.6h1v2.6h2.3v1H673v2.6H672z"/>
		<path d="M684,287.5v-0.9h2v-4.2h-2v-0.9h3v5.1h2v0.9H684z M686.5,280.4c-0.3,0-0.5,0-0.6-0.1c-0.2-0.1-0.2-0.2-0.2-0.4v-0.1
			c0-0.2,0.1-0.4,0.2-0.5c0.2-0.1,0.4-0.1,0.6-0.1c0.3,0,0.5,0,0.6,0.1c0.2,0.1,0.2,0.2,0.2,0.5v0.1c0,0.2-0.1,0.4-0.2,0.4
			C686.9,280.4,686.7,280.4,686.5,280.4z"/>
		<path d="M697.7,283.1v-1h5.6v1H697.7z M697.7,285.9v-1h5.6v1H697.7z"/>
		<path d="M715.5,287.6c-0.7,0-1.2-0.2-1.5-0.5c-0.4-0.3-0.5-0.8-0.5-1.5v-3.2h-1.7v-0.9h1.7v-2h1v2h2.6v0.9h-2.6v3.1
			c0,0.4,0.1,0.7,0.3,0.9c0.2,0.2,0.5,0.3,0.9,0.3c0.3,0,0.5,0,0.7-0.1c0.2,0,0.4-0.1,0.6-0.1l0.2,0.9c-0.2,0.1-0.5,0.1-0.7,0.2
			C716.1,287.6,715.8,287.6,715.5,287.6z"/>
		<path d="M721.5,287.6c-0.8,0-1.4-0.2-1.9-0.6c-0.4-0.4-0.6-1-0.6-1.7v-1.6c0-0.7,0.2-1.3,0.7-1.7c0.4-0.4,1.1-0.6,1.9-0.6
			c0.8,0,1.4,0.2,1.8,0.6c0.4,0.4,0.6,1,0.6,1.7v1.6c0,0.7-0.2,1.3-0.6,1.7C722.9,287.4,722.3,287.6,721.5,287.6z M721.5,286.7
			c0.5,0,0.9-0.1,1.1-0.3c0.2-0.2,0.4-0.6,0.4-1v-1.6c0-0.5-0.1-0.8-0.4-1.1s-0.6-0.3-1.1-0.3s-0.9,0.1-1.1,0.3
			c-0.2,0.2-0.4,0.6-0.4,1.1v1.6c0,0.5,0.1,0.8,0.4,1C720.6,286.6,721,286.7,721.5,286.7z"/>
		<path d="M731.5,288c0,0.5-0.2,0.9-0.6,1.2c-0.4,0.3-0.9,0.4-1.5,0.4h-1.9c-0.6,0-1.1-0.1-1.5-0.4c-0.4-0.2-0.6-0.6-0.6-1.1
			c0-0.3,0.1-0.6,0.3-0.8c0.2-0.2,0.4-0.3,0.7-0.3v-0.2c-0.2,0-0.4-0.1-0.6-0.3c-0.1-0.2-0.2-0.4-0.2-0.7c0-0.3,0.1-0.5,0.3-0.8
			c0.2-0.2,0.5-0.4,0.9-0.4v-0.2c-0.3-0.1-0.5-0.3-0.7-0.5c-0.1-0.2-0.2-0.4-0.2-0.6v-0.3c0-0.5,0.2-0.8,0.6-1.1
			c0.4-0.3,0.9-0.5,1.7-0.5h3v0.9l-1.5-0.2v0.2c0.3,0.1,0.5,0.2,0.6,0.4s0.2,0.4,0.2,0.6v0.3c0,0.5-0.2,0.8-0.5,1.1
			c-0.4,0.3-0.9,0.4-1.7,0.4H727c-0.2,0-0.3,0-0.4,0.1c-0.1,0.1-0.1,0.2-0.1,0.5c0,0.2,0.1,0.4,0.2,0.5s0.3,0.2,0.6,0.2h2.3
			c0.6,0,1,0.1,1.4,0.4S731.5,287.4,731.5,288z M727.5,288.8h2c0.3,0,0.5-0.1,0.7-0.2s0.3-0.3,0.3-0.6c0-0.3-0.1-0.5-0.3-0.6
			s-0.4-0.2-0.7-0.2h-3.2v0.7c0,0.3,0.1,0.5,0.3,0.6C726.9,288.7,727.2,288.8,727.5,288.8z M728.3,284.4c0.4,0,0.7-0.1,0.9-0.2
			c0.2-0.1,0.3-0.4,0.3-0.7v-0.3c0-0.3-0.1-0.5-0.3-0.7c-0.2-0.1-0.5-0.2-0.9-0.2c-0.4,0-0.7,0.1-0.9,0.2c-0.2,0.1-0.3,0.4-0.3,0.7
			v0.3c0,0.3,0.1,0.5,0.3,0.7C727.6,284.4,727.9,284.4,728.3,284.4z"/>
		<path d="M738.5,288c0,0.5-0.2,0.9-0.6,1.2c-0.4,0.3-0.9,0.4-1.5,0.4h-1.9c-0.6,0-1.1-0.1-1.5-0.4c-0.4-0.2-0.6-0.6-0.6-1.1
			c0-0.3,0.1-0.6,0.3-0.8c0.2-0.2,0.4-0.3,0.7-0.3v-0.2c-0.2,0-0.4-0.1-0.6-0.3c-0.1-0.2-0.2-0.4-0.2-0.7c0-0.3,0.1-0.5,0.3-0.8
			c0.2-0.2,0.5-0.4,0.9-0.4v-0.2c-0.3-0.1-0.5-0.3-0.7-0.5c-0.1-0.2-0.2-0.4-0.2-0.6v-0.3c0-0.5,0.2-0.8,0.6-1.1
			c0.4-0.3,0.9-0.5,1.7-0.5h3v0.9l-1.5-0.2v0.2c0.3,0.1,0.5,0.2,0.6,0.4s0.2,0.4,0.2,0.6v0.3c0,0.5-0.2,0.8-0.5,1.1
			c-0.4,0.3-0.9,0.4-1.7,0.4H734c-0.2,0-0.3,0-0.4,0.1c-0.1,0.1-0.1,0.2-0.1,0.5c0,0.2,0.1,0.4,0.2,0.5s0.3,0.2,0.6,0.2h2.3
			c0.6,0,1,0.1,1.4,0.4S738.5,287.4,738.5,288z M734.5,288.8h2c0.3,0,0.5-0.1,0.7-0.2s0.3-0.3,0.3-0.6c0-0.3-0.1-0.5-0.3-0.6
			s-0.4-0.2-0.7-0.2h-3.2v0.7c0,0.3,0.1,0.5,0.3,0.6C733.9,288.7,734.2,288.8,734.5,288.8z M735.3,284.4c0.4,0,0.7-0.1,0.9-0.2
			c0.2-0.1,0.3-0.4,0.3-0.7v-0.3c0-0.3-0.1-0.5-0.3-0.7c-0.2-0.1-0.5-0.2-0.9-0.2c-0.4,0-0.7,0.1-0.9,0.2c-0.2,0.1-0.3,0.4-0.3,0.7
			v0.3c0,0.3,0.1,0.5,0.3,0.7C734.6,284.4,734.9,284.4,735.3,284.4z"/>
		<path d="M740,287.5v-0.9h2v-6.2h-2v-0.9h3v7.1h2v0.9H740z"/>
		<path d="M752,286.2c-0.2,0.5-0.5,0.9-0.8,1.1c-0.4,0.2-0.9,0.3-1.7,0.3c-0.8,0-1.4-0.2-1.8-0.6c-0.4-0.4-0.7-1-0.7-1.7v-1.6
			c0-0.8,0.2-1.4,0.7-1.7c0.5-0.4,1.1-0.6,1.8-0.6c0.8,0,1.4,0.2,1.8,0.6c0.5,0.4,0.7,1,0.7,1.8v0.9h-4v0.6c0,0.5,0.1,0.9,0.4,1.1
			c0.2,0.2,0.6,0.3,1.1,0.3c0.5,0,0.8-0.1,1-0.2c0.2-0.1,0.4-0.3,0.5-0.6L752,286.2z M748,283.7v0.2h3v-0.2c0-0.5-0.1-0.9-0.4-1.2
			s-0.6-0.4-1.1-0.4s-0.9,0.1-1.1,0.4C748.1,282.8,748,283.2,748,283.7z"/>
		<path d="M761,287.5v-0.9h2v-4.2h-2v-0.9h3v5.1h2v0.9H761z M763.5,280.4c-0.3,0-0.5,0-0.6-0.1c-0.2-0.1-0.2-0.2-0.2-0.4v-0.1
			c0-0.2,0.1-0.4,0.2-0.5c0.2-0.1,0.4-0.1,0.6-0.1c0.3,0,0.5,0,0.6,0.1c0.2,0.1,0.2,0.2,0.2,0.5v0.1c0,0.2-0.1,0.4-0.2,0.4
			C763.9,280.4,763.7,280.4,763.5,280.4z"/>
		<path d="M768,287.5v-6h1v1h0.3c0.1-0.3,0.4-0.6,0.7-0.8c0.3-0.2,0.7-0.3,1.1-0.3c0.6,0,1.1,0.2,1.4,0.6c0.3,0.4,0.5,0.9,0.5,1.5v4
			h-1v-3.9c0-0.4-0.1-0.7-0.3-1c-0.2-0.2-0.5-0.3-0.9-0.3c-0.3,0-0.6,0.1-0.9,0.3c-0.3,0.2-0.6,0.4-0.9,0.8v4.1H768z"/>
		<path d="M777.6,287.6c-0.5,0-1-0.1-1.5-0.2c-0.5-0.1-0.9-0.4-1.3-0.7l0.5-0.8c0.3,0.3,0.7,0.5,1.1,0.6s0.8,0.2,1.2,0.2
			c0.3,0,0.7-0.1,1-0.2c0.3-0.1,0.5-0.3,0.5-0.7c0-0.3-0.1-0.5-0.4-0.6c-0.3-0.1-0.7-0.2-1.4-0.3c-0.7-0.1-1.3-0.3-1.7-0.5
			c-0.4-0.3-0.6-0.7-0.6-1.2c0-0.6,0.2-1.1,0.7-1.4s1-0.5,1.6-0.5c0.5,0,0.9,0.1,1.4,0.2c0.4,0.2,0.8,0.4,1.2,0.7l-0.5,0.8
			c-0.3-0.2-0.6-0.4-1-0.6c-0.4-0.1-0.7-0.2-1.1-0.2c-0.3,0-0.6,0.1-0.9,0.2s-0.4,0.3-0.4,0.7c0,0.3,0.1,0.5,0.4,0.6
			c0.2,0.1,0.7,0.2,1.4,0.3c0.8,0.1,1.3,0.3,1.7,0.6c0.4,0.3,0.6,0.7,0.6,1.2c0,0.6-0.3,1.1-0.8,1.4
			C778.8,287.5,778.2,287.6,777.6,287.6z"/>
		<path d="M787,286.2c-0.2,0.5-0.5,0.9-0.8,1.1c-0.4,0.2-0.9,0.3-1.7,0.3c-0.8,0-1.4-0.2-1.8-0.6c-0.4-0.4-0.7-1-0.7-1.7v-1.6
			c0-0.8,0.2-1.4,0.7-1.7c0.5-0.4,1.1-0.6,1.8-0.6c0.8,0,1.4,0.2,1.8,0.6c0.5,0.4,0.7,1,0.7,1.8v0.9h-4v0.6c0,0.5,0.1,0.9,0.4,1.1
			c0.2,0.2,0.6,0.3,1.1,0.3c0.5,0,0.8-0.1,1-0.2c0.2-0.1,0.4-0.3,0.5-0.6L787,286.2z M783,283.7v0.2h3v-0.2c0-0.5-0.1-0.9-0.4-1.2
			s-0.6-0.4-1.1-0.4s-0.9,0.1-1.1,0.4C783.1,282.8,783,283.2,783,283.7z"/>
		<path d="M789.5,287.5v-6h1v1h0.3c0.1-0.4,0.4-0.7,0.6-0.8c0.3-0.2,0.6-0.3,1-0.3c0.4,0,0.8,0.1,1.1,0.4c0.3,0.3,0.5,0.7,0.5,1.3
			v0.9h-1v-0.5c0-0.4-0.1-0.7-0.3-0.8c-0.2-0.2-0.4-0.3-0.8-0.3c-0.3,0-0.6,0.1-0.9,0.2s-0.5,0.4-0.7,0.7v4.2H789.5z"/>
		<path d="M799.5,287.6c-0.7,0-1.2-0.2-1.5-0.5c-0.4-0.3-0.5-0.8-0.5-1.5v-3.2h-1.7v-0.9h1.7v-2h1v2h2.6v0.9h-2.6v3.1
			c0,0.4,0.1,0.7,0.3,0.9c0.2,0.2,0.5,0.3,0.9,0.3c0.3,0,0.5,0,0.7-0.1c0.2,0,0.4-0.1,0.6-0.1l0.2,0.9c-0.2,0.1-0.5,0.1-0.7,0.2
			C800.1,287.6,799.8,287.6,799.5,287.6z"/>
		<path d="M810.5,283.2v4.3h-0.9v-6h0.9v0.8h0.2c0.1-0.3,0.3-0.5,0.5-0.7c0.2-0.2,0.4-0.2,0.7-0.2c0.3,0,0.5,0.1,0.7,0.2
			c0.2,0.2,0.3,0.4,0.4,0.7h0.2c0.1-0.3,0.3-0.5,0.5-0.7c0.2-0.2,0.4-0.2,0.7-0.2c0.3,0,0.6,0.1,0.8,0.4s0.3,0.6,0.3,1.1v4.6h-0.9
			v-4.4c0-0.3,0-0.5-0.1-0.7s-0.2-0.2-0.4-0.2c-0.1,0-0.3,0.1-0.5,0.3c-0.2,0.2-0.4,0.4-0.6,0.8v4.3H812v-4.4c0-0.3,0-0.5-0.1-0.7
			s-0.2-0.2-0.4-0.2c-0.1,0-0.3,0.1-0.5,0.3C810.9,282.6,810.7,282.9,810.5,283.2z"/>
		<path d="M819.5,287.6c-0.8,0-1.4-0.2-1.9-0.6c-0.4-0.4-0.6-1-0.6-1.7v-1.6c0-0.7,0.2-1.3,0.7-1.7c0.4-0.4,1.1-0.6,1.9-0.6
			c0.8,0,1.4,0.2,1.8,0.6c0.4,0.4,0.6,1,0.6,1.7v1.6c0,0.7-0.2,1.3-0.6,1.7C820.9,287.4,820.3,287.6,819.5,287.6z M819.5,286.7
			c0.5,0,0.9-0.1,1.1-0.3c0.2-0.2,0.4-0.6,0.4-1v-1.6c0-0.5-0.1-0.8-0.4-1.1s-0.6-0.3-1.1-0.3s-0.9,0.1-1.1,0.3
			c-0.2,0.2-0.4,0.6-0.4,1.1v1.6c0,0.5,0.1,0.8,0.4,1C818.6,286.6,819,286.7,819.5,286.7z"/>
		<path d="M827.7,286.5c-0.2,0.3-0.4,0.6-0.7,0.8c-0.3,0.2-0.7,0.3-1,0.3c-0.6,0-1.1-0.2-1.4-0.6s-0.5-1-0.5-1.7v-1.6
			c0-0.7,0.2-1.3,0.7-1.7s1.1-0.6,1.9-0.6c0.2,0,0.5,0,0.7,0.1c0.2,0,0.5,0.1,0.7,0.2v-2.2h1v8h-1v-1H827.7z M826.2,286.6
			c0.3,0,0.6-0.1,0.9-0.3s0.6-0.4,0.9-0.8v-2.9c-0.2-0.1-0.4-0.2-0.7-0.3s-0.5-0.1-0.8-0.1c-0.5,0-0.9,0.1-1.2,0.4
			c-0.3,0.2-0.4,0.6-0.4,1.1v1.6c0,0.4,0.1,0.8,0.3,1C825.5,286.5,825.8,286.6,826.2,286.6z"/>
		<path d="M836,286.2c-0.2,0.5-0.5,0.9-0.8,1.1c-0.4,0.2-0.9,0.3-1.7,0.3c-0.8,0-1.4-0.2-1.8-0.6c-0.4-0.4-0.7-1-0.7-1.7v-1.6
			c0-0.8,0.2-1.4,0.7-1.7c0.5-0.4,1.1-0.6,1.8-0.6c0.8,0,1.4,0.2,1.8,0.6c0.5,0.4,0.7,1,0.7,1.8v0.9h-4v0.6c0,0.5,0.1,0.9,0.4,1.1
			c0.2,0.2,0.6,0.3,1.1,0.3c0.5,0,0.8-0.1,1-0.2c0.2-0.1,0.4-0.3,0.5-0.6L836,286.2z M832,283.7v0.2h3v-0.2c0-0.5-0.1-0.9-0.4-1.2
			s-0.6-0.4-1.1-0.4s-0.9,0.1-1.1,0.4C832.1,282.8,832,283.2,832,283.7z"/>
		<path d="M840.5,287.6c-0.3,0-0.6-0.1-0.8-0.2c-0.2-0.1-0.3-0.4-0.3-0.7v-0.3c0-0.3,0.1-0.6,0.3-0.7c0.2-0.2,0.5-0.2,0.8-0.2
			c0.3,0,0.6,0.1,0.8,0.2c0.2,0.2,0.3,0.4,0.3,0.7v0.3c0,0.3-0.1,0.6-0.3,0.7C841.1,287.5,840.8,287.6,840.5,287.6z"/>
	</g>
	<g>
		<path d="M659.3,228.6c-0.9,0-1.6-0.2-2-0.6s-0.7-1-0.7-1.9v-2.5c0-0.8,0.2-1.5,0.7-1.9c0.4-0.4,1.1-0.6,2-0.6c0.9,0,1.6,0.2,2,0.6
			s0.6,1.1,0.7,2l-1.4,0.1c0-0.6-0.2-1-0.3-1.2c-0.2-0.2-0.5-0.3-1-0.3c-0.5,0-0.8,0.1-1,0.3c-0.2,0.2-0.3,0.6-0.3,1.2v2.3
			c0,0.5,0.1,0.9,0.3,1.1c0.2,0.2,0.5,0.3,1,0.3c0.5,0,0.8-0.1,1-0.3c0.2-0.2,0.3-0.6,0.3-1.2l1.4,0.1c0,0.9-0.3,1.5-0.7,1.9
			C660.8,228.4,660.2,228.6,659.3,228.6z"/>
		<path d="M665.5,228.6c-0.8,0-1.4-0.2-1.8-0.5c-0.4-0.4-0.6-0.9-0.6-1.5v-1.5c0-0.7,0.2-1.2,0.6-1.6c0.4-0.4,1-0.5,1.8-0.5
			c0.8,0,1.4,0.2,1.8,0.6c0.4,0.4,0.6,0.9,0.6,1.6v1.5c0,0.6-0.2,1.2-0.6,1.5C666.9,228.4,666.3,228.6,665.5,228.6z M665.5,227.5
			c0.4,0,0.7-0.1,0.8-0.3c0.2-0.2,0.3-0.4,0.3-0.8v-1.4c0-0.4-0.1-0.7-0.3-0.8s-0.5-0.3-0.8-0.3s-0.7,0.1-0.8,0.3s-0.3,0.4-0.3,0.8
			v1.4c0,0.4,0.1,0.7,0.3,0.8S665.2,227.5,665.5,227.5z"/>
		<path d="M669.5,228.5V223h1.4v1h0.3c0.1-0.3,0.4-0.6,0.7-0.8s0.6-0.3,1-0.3c0.5,0,0.9,0.2,1.2,0.5c0.3,0.3,0.4,0.7,0.4,1.3v3.8
			H673V225c0-0.3-0.1-0.5-0.2-0.7c-0.1-0.2-0.3-0.2-0.6-0.2c-0.2,0-0.5,0.1-0.7,0.2s-0.5,0.3-0.7,0.6v3.7H669.5z"/>
		<path d="M679.2,228.6c-0.7,0-1.2-0.2-1.6-0.5c-0.4-0.3-0.6-0.8-0.6-1.4v-2.6h-1.4v-1h1.4v-1.8h1.4v1.8h2.2v1h-2.2v2.4
			c0,0.3,0.1,0.6,0.2,0.8c0.2,0.2,0.4,0.2,0.7,0.2c0.2,0,0.4,0,0.6,0c0.2,0,0.4-0.1,0.6-0.1l0.2,1c-0.2,0.1-0.4,0.1-0.6,0.2
			S679.5,228.6,679.2,228.6z"/>
		<path d="M682.5,228.5V223h1.4v1h0.3c0.1-0.4,0.3-0.6,0.6-0.8c0.3-0.2,0.6-0.2,1-0.2c0.4,0,0.8,0.1,1,0.4c0.3,0.3,0.4,0.7,0.4,1.1
			v0.9h-1.3v-0.5c0-0.3-0.1-0.5-0.2-0.6c-0.1-0.1-0.3-0.2-0.6-0.2c-0.2,0-0.5,0.1-0.7,0.2c-0.2,0.1-0.4,0.3-0.6,0.6v3.7H682.5z"/>
		<path d="M691,228.6c-0.8,0-1.4-0.2-1.8-0.5c-0.4-0.4-0.6-0.9-0.6-1.5v-1.5c0-0.7,0.2-1.2,0.6-1.6c0.4-0.4,1-0.5,1.8-0.5
			c0.8,0,1.4,0.2,1.8,0.6c0.4,0.4,0.6,0.9,0.6,1.6v1.5c0,0.6-0.2,1.2-0.6,1.5C692.4,228.4,691.8,228.6,691,228.6z M691,227.5
			c0.4,0,0.7-0.1,0.8-0.3c0.2-0.2,0.3-0.4,0.3-0.8v-1.4c0-0.4-0.1-0.7-0.3-0.8s-0.5-0.3-0.8-0.3s-0.7,0.1-0.8,0.3s-0.3,0.4-0.3,0.8
			v1.4c0,0.4,0.1,0.7,0.3,0.8S690.6,227.5,691,227.5z"/>
		<path d="M695,228.5v-1h1.8v-5.2H695v-1h3.1v6.2h1.7v1H695z"/>
	</g>
	<g>
		<path d="M666.8,248.6c-0.5,0-1-0.2-1.3-0.5c-0.3-0.4-0.5-0.8-0.5-1.4V243h0.8v3.5c0,0.4,0.1,0.8,0.3,1s0.5,0.3,0.9,0.3
			c0.3,0,0.6-0.1,0.9-0.2c0.3-0.2,0.6-0.4,0.9-0.8V243h0.8v5.5h-0.8v-0.9h-0.3c-0.1,0.3-0.3,0.5-0.6,0.7
			C667.5,248.5,667.1,248.6,666.8,248.6z"/>
		<path d="M674.7,247.6c-0.2,0.3-0.4,0.6-0.7,0.7c-0.3,0.2-0.6,0.3-0.9,0.3c-0.6,0-1-0.2-1.3-0.5c-0.3-0.4-0.5-0.9-0.5-1.6V245
			c0-0.7,0.2-1.2,0.6-1.5c0.4-0.4,1-0.5,1.7-0.5c0.2,0,0.4,0,0.7,0.1c0.2,0,0.4,0.1,0.6,0.2v-2h0.8v7.3H675v-0.9H674.7z
			 M673.3,247.8c0.3,0,0.6-0.1,0.9-0.3c0.3-0.2,0.6-0.4,0.8-0.8V244c-0.2-0.1-0.4-0.2-0.6-0.3c-0.2-0.1-0.5-0.1-0.7-0.1
			c-0.5,0-0.9,0.1-1.2,0.3c-0.3,0.2-0.4,0.6-0.4,1.1v1.5c0,0.4,0.1,0.8,0.3,1C672.6,247.7,672.9,247.8,673.3,247.8z"/>
		<path d="M679.8,248.6c-0.2,0-0.4,0-0.7-0.1s-0.4-0.1-0.7-0.2v2h-0.8V243h0.8v0.9h0.3c0.2-0.3,0.4-0.5,0.7-0.7s0.6-0.3,0.9-0.3
			c0.6,0,1,0.2,1.3,0.6s0.5,0.9,0.5,1.6v1.4c0,0.6-0.2,1.2-0.6,1.5C681.1,248.4,680.5,248.6,679.8,248.6z M679.8,247.9
			c0.5,0,0.9-0.1,1.2-0.3s0.4-0.6,0.4-1.1V245c0-0.5-0.1-0.8-0.3-1c-0.2-0.2-0.5-0.3-0.9-0.3c-0.3,0-0.6,0.1-0.9,0.2
			c-0.3,0.2-0.6,0.4-0.8,0.8v2.8c0.2,0.1,0.4,0.2,0.6,0.3C679.3,247.9,679.5,247.9,679.8,247.9z"/>
	</g>
	<g>
		<path d="M699.2,248.6c-0.7,0-1.3-0.2-1.6-0.5c-0.4-0.4-0.6-0.9-0.6-1.5v-1.5c0-0.7,0.2-1.2,0.6-1.6c0.4-0.4,0.9-0.5,1.7-0.5
			c0.7,0,1.3,0.2,1.6,0.5c0.4,0.4,0.6,0.9,0.6,1.5v1.5c0,0.7-0.2,1.2-0.6,1.5S699.9,248.6,699.2,248.6z M699.2,247.9
			c0.5,0,0.9-0.1,1.1-0.3c0.2-0.2,0.4-0.5,0.4-1V245c0-0.5-0.1-0.8-0.4-1c-0.2-0.2-0.6-0.3-1.1-0.3s-0.9,0.1-1.1,0.3
			c-0.2,0.2-0.4,0.6-0.4,1v1.5c0,0.4,0.1,0.8,0.4,1C698.3,247.8,698.7,247.9,699.2,247.9z"/>
		<path d="M705.6,248.6c-0.5,0-0.9-0.1-1.3-0.2c-0.4-0.1-0.8-0.4-1.2-0.7l0.4-0.6c0.3,0.2,0.6,0.4,1,0.6c0.4,0.1,0.7,0.2,1.1,0.2
			c0.3,0,0.6-0.1,1-0.1c0.3-0.1,0.5-0.3,0.5-0.7c0-0.3-0.1-0.5-0.4-0.6c-0.2-0.1-0.7-0.2-1.4-0.3c-0.7-0.1-1.1-0.2-1.5-0.5
			s-0.5-0.6-0.5-1.1c0-0.5,0.2-0.9,0.6-1.2s0.9-0.4,1.4-0.4c0.4,0,0.9,0.1,1.2,0.2c0.4,0.2,0.8,0.4,1.1,0.6l-0.4,0.7
			c-0.3-0.2-0.6-0.4-0.9-0.6c-0.3-0.1-0.7-0.2-1-0.2c-0.3,0-0.6,0.1-0.8,0.2s-0.4,0.3-0.4,0.6c0,0.3,0.1,0.5,0.3,0.6
			c0.2,0.1,0.7,0.2,1.3,0.3c0.7,0.1,1.2,0.2,1.5,0.5c0.3,0.3,0.5,0.6,0.5,1.1c0,0.6-0.2,1-0.7,1.2S706.2,248.6,705.6,248.6z"/>
		<path d="M712,248.6c-0.8,0-1.4-0.2-1.8-0.5c-0.4-0.3-0.6-0.9-0.6-1.5v-1.5c0-0.7,0.2-1.2,0.6-1.6c0.4-0.4,1-0.5,1.8-0.5
			c0.7,0,1.2,0.2,1.6,0.5c0.4,0.3,0.6,0.8,0.6,1.4l-0.8,0c0-0.4-0.2-0.7-0.4-0.9c-0.2-0.2-0.6-0.3-1-0.3c-0.5,0-0.9,0.1-1.2,0.3
			s-0.4,0.6-0.4,1v1.5c0,0.4,0.1,0.8,0.4,1s0.7,0.3,1.2,0.3c0.5,0,0.8-0.1,1-0.2c0.2-0.2,0.4-0.4,0.4-0.7l0.8,0c0,0.5-0.3,1-0.6,1.2
			C713.2,248.5,712.7,248.6,712,248.6z"/>
	</g>
	<g>
		<path d="M731.5,248.5V243h0.8v0.9h0.3c0.1-0.3,0.3-0.6,0.6-0.7s0.6-0.2,0.9-0.2c0.4,0,0.7,0.1,1,0.4c0.3,0.3,0.4,0.7,0.4,1.1v0.8
			h-0.7v-0.5c0-0.4-0.1-0.6-0.2-0.8c-0.2-0.2-0.4-0.3-0.7-0.3c-0.3,0-0.6,0.1-0.8,0.2s-0.5,0.4-0.7,0.7v3.9H731.5z"/>
		<path d="M741.8,247.3c-0.2,0.4-0.4,0.8-0.7,1c-0.3,0.2-0.8,0.3-1.5,0.3c-0.7,0-1.3-0.2-1.6-0.5s-0.6-0.9-0.6-1.6v-1.5
			c0-0.7,0.2-1.2,0.6-1.6c0.4-0.3,1-0.5,1.6-0.5c0.7,0,1.2,0.2,1.6,0.5s0.6,0.9,0.6,1.6v0.8h-3.7v0.6c0,0.5,0.1,0.9,0.4,1.1
			c0.2,0.2,0.6,0.3,1.1,0.3c0.5,0,0.8-0.1,1-0.2c0.2-0.1,0.3-0.3,0.4-0.6L741.8,247.3z M738.1,245.1v0.2h2.9v-0.1
			c0-0.5-0.1-0.9-0.4-1.1c-0.2-0.2-0.6-0.4-1.1-0.4s-0.8,0.1-1.1,0.4S738.1,244.6,738.1,245.1z"/>
		<path d="M746.4,248.5h-0.9l-2-5.5h0.9l1.6,4.8l1.6-4.8h0.9L746.4,248.5z"/>
	</g>
	<g>
		<path d="M765.3,248.5v-4.7h-1.6V243h1.6v-0.4c0-0.5,0.2-0.8,0.6-1.1s0.8-0.4,1.4-0.4c0.3,0,0.5,0,0.8,0.1c0.2,0.1,0.4,0.1,0.6,0.2
			l-0.2,0.7c-0.1,0-0.3-0.1-0.5-0.1c-0.2,0-0.4-0.1-0.7-0.1c-0.3,0-0.6,0.1-0.8,0.2c-0.2,0.1-0.3,0.3-0.3,0.5v0.4h2.3v0.7h-2.3v4.7
			H765.3z"/>
		<path d="M772.5,248.6c-0.7,0-1.3-0.2-1.6-0.5c-0.4-0.4-0.6-0.9-0.6-1.5v-1.5c0-0.7,0.2-1.2,0.6-1.6c0.4-0.4,0.9-0.5,1.7-0.5
			c0.7,0,1.3,0.2,1.6,0.5c0.4,0.4,0.6,0.9,0.6,1.5v1.5c0,0.7-0.2,1.2-0.6,1.5S773.3,248.6,772.5,248.6z M772.5,247.9
			c0.5,0,0.9-0.1,1.1-0.3c0.2-0.2,0.4-0.5,0.4-1V245c0-0.5-0.1-0.8-0.4-1c-0.2-0.2-0.6-0.3-1.1-0.3s-0.9,0.1-1.1,0.3
			c-0.2,0.2-0.4,0.6-0.4,1v1.5c0,0.4,0.1,0.8,0.4,1C771.7,247.8,772.1,247.9,772.5,247.9z"/>
		<path d="M779,248.6c-0.8,0-1.4-0.2-1.8-0.5c-0.4-0.3-0.6-0.9-0.6-1.5v-1.5c0-0.7,0.2-1.2,0.6-1.6c0.4-0.4,1-0.5,1.8-0.5
			c0.7,0,1.2,0.2,1.6,0.5c0.4,0.3,0.6,0.8,0.6,1.4l-0.8,0c0-0.4-0.2-0.7-0.4-0.9c-0.2-0.2-0.6-0.3-1-0.3c-0.5,0-0.9,0.1-1.2,0.3
			s-0.4,0.6-0.4,1v1.5c0,0.4,0.1,0.8,0.4,1s0.7,0.3,1.2,0.3c0.5,0,0.8-0.1,1-0.2c0.2-0.2,0.4-0.4,0.4-0.7l0.8,0c0,0.5-0.3,1-0.6,1.2
			C780.2,248.5,779.7,248.6,779,248.6z"/>
		<path d="M784.9,248.6c-0.5,0-1-0.2-1.3-0.5c-0.3-0.4-0.5-0.8-0.5-1.4V243h0.8v3.5c0,0.4,0.1,0.8,0.3,1s0.5,0.3,0.9,0.3
			c0.3,0,0.6-0.1,0.9-0.2c0.3-0.2,0.6-0.4,0.9-0.8V243h0.8v5.5h-0.8v-0.9h-0.3c-0.1,0.3-0.3,0.5-0.6,0.7
			C785.5,248.5,785.2,248.6,784.9,248.6z"/>
		<path d="M791.7,248.6c-0.5,0-0.9-0.1-1.3-0.2c-0.4-0.1-0.8-0.4-1.2-0.7l0.4-0.6c0.3,0.2,0.6,0.4,1,0.6c0.4,0.1,0.7,0.2,1.1,0.2
			c0.3,0,0.6-0.1,1-0.1c0.3-0.1,0.5-0.3,0.5-0.7c0-0.3-0.1-0.5-0.4-0.6c-0.2-0.1-0.7-0.2-1.4-0.3c-0.7-0.1-1.1-0.2-1.5-0.5
			s-0.5-0.6-0.5-1.1c0-0.5,0.2-0.9,0.6-1.2s0.9-0.4,1.4-0.4c0.4,0,0.9,0.1,1.2,0.2c0.4,0.2,0.8,0.4,1.1,0.6l-0.4,0.7
			c-0.3-0.2-0.6-0.4-0.9-0.6c-0.3-0.1-0.7-0.2-1-0.2c-0.3,0-0.6,0.1-0.8,0.2s-0.4,0.3-0.4,0.6c0,0.3,0.1,0.5,0.3,0.6
			c0.2,0.1,0.7,0.2,1.3,0.3c0.7,0.1,1.2,0.2,1.5,0.5c0.3,0.3,0.5,0.6,0.5,1.1c0,0.6-0.2,1-0.7,1.2S792.2,248.6,791.7,248.6z"/>
	</g>
	<g>
		<path d="M658.1,189.5v-4.4h-1.5v-1h1.5v-0.3c0-0.5,0.2-1,0.6-1.3s0.9-0.5,1.6-0.5c0.3,0,0.5,0,0.8,0.1c0.2,0,0.5,0.1,0.7,0.2
			l-0.2,1c-0.2-0.1-0.3-0.1-0.5-0.1c-0.2,0-0.4,0-0.6,0c-0.3,0-0.5,0.1-0.7,0.2c-0.2,0.1-0.3,0.3-0.3,0.6v0.3h2.1v1h-2.1v4.4H658.1z
			"/>
		<path d="M663.1,189.5v-1h1.7v-3.4h-1.7v-1h3.1v4.4h1.7v1H663.1z M665.6,183.1c-0.3,0-0.5,0-0.7-0.1c-0.2-0.1-0.3-0.2-0.3-0.5v-0.1
			c0-0.2,0.1-0.4,0.3-0.5c0.2-0.1,0.4-0.1,0.7-0.1s0.5,0,0.7,0.1c0.2,0.1,0.3,0.3,0.3,0.5v0.1c0,0.2-0.1,0.4-0.3,0.5
			S665.9,183.1,665.6,183.1z"/>
		<path d="M669.5,189.5V184h1.4v1h0.3c0.1-0.3,0.4-0.6,0.7-0.8s0.6-0.3,1-0.3c0.5,0,0.9,0.2,1.2,0.5c0.3,0.3,0.4,0.7,0.4,1.3v3.8
			H673V186c0-0.3-0.1-0.5-0.2-0.7c-0.1-0.2-0.3-0.2-0.6-0.2c-0.2,0-0.5,0.1-0.7,0.2s-0.5,0.3-0.7,0.6v3.7H669.5z"/>
		<path d="M679.1,188.5c-0.2,0.3-0.4,0.6-0.7,0.8c-0.3,0.2-0.6,0.3-1,0.3c-0.5,0-0.9-0.2-1.2-0.5s-0.4-0.8-0.4-1.4V186
			c0-0.6,0.2-1.2,0.6-1.5c0.4-0.4,1-0.5,1.7-0.5c0.2,0,0.4,0,0.6,0.1c0.2,0,0.4,0.1,0.6,0.2v-2h1.4v7.3h-1.4v-1H679.1z M678,188.5
			c0.2,0,0.5-0.1,0.7-0.2c0.2-0.1,0.4-0.3,0.6-0.5v-2.5c-0.2-0.1-0.3-0.2-0.5-0.2s-0.4-0.1-0.6-0.1c-0.4,0-0.7,0.1-0.8,0.3
			c-0.2,0.2-0.3,0.4-0.3,0.8v1.4c0,0.3,0.1,0.6,0.2,0.8C677.6,188.4,677.8,188.5,678,188.5z"/>
	</g>
	<g>
		<path d="M829.5,202.5v-6.2h-2.1v-1.1h5.6v1.1h-2.1v6.2H829.5z"/>
		<path d="M836,200.5l-1.1-3.2l0.1,5.2h-1.2v-7.3h1.5l1.3,3.9l1.2-3.9h1.4v7.3H838l0.1-5.2l-1.1,3.1H836z"/>
		<path d="M840.4,202.5v-7.3h5.1v1.1h-3.7v1.7h3.3v1.1h-3.3v2.3h3.7v1.1H840.4z"/>
		<path d="M855.6,199c-0.3,0-0.6-0.1-0.8-0.2c-0.2-0.1-0.3-0.3-0.3-0.6v-0.5c0-0.3,0.1-0.5,0.3-0.6s0.5-0.2,0.8-0.2
			c0.3,0,0.6,0.1,0.8,0.2s0.3,0.4,0.3,0.6v0.5c0,0.3-0.1,0.5-0.3,0.6C856.2,198.9,856,199,855.6,199z M855.6,202.6
			c-0.3,0-0.6-0.1-0.8-0.2c-0.2-0.1-0.3-0.3-0.3-0.6v-0.5c0-0.3,0.1-0.5,0.3-0.6c0.2-0.1,0.5-0.2,0.8-0.2c0.3,0,0.6,0.1,0.8,0.2
			c0.2,0.1,0.3,0.4,0.3,0.6v0.5c0,0.3-0.1,0.5-0.3,0.6C856.2,202.5,856,202.6,855.6,202.6z"/>
	</g>
	<g>
		<path d="M828.1,215.5v-7.3h1.4v6.2h3.2v1.1H828.1z"/>
		<path d="M834,215.5v-7.3h5.1v1.1h-3.7v1.7h3.3v1.1h-3.3v2.3h3.7v1.1H834z"/>
		<path d="M843.7,215.5l-2.1-5.5v5.5h-1.2v-7.3h1.6l2.2,5.7v-5.7h1.2v7.3H843.7z"/>
		<path d="M855.6,212c-0.3,0-0.6-0.1-0.8-0.2c-0.2-0.1-0.3-0.3-0.3-0.6v-0.5c0-0.3,0.1-0.5,0.3-0.6s0.5-0.2,0.8-0.2
			c0.3,0,0.6,0.1,0.8,0.2s0.3,0.4,0.3,0.6v0.5c0,0.3-0.1,0.5-0.3,0.6C856.2,211.9,856,212,855.6,212z M855.6,215.6
			c-0.3,0-0.6-0.1-0.8-0.2c-0.2-0.1-0.3-0.3-0.3-0.6v-0.5c0-0.3,0.1-0.5,0.3-0.6c0.2-0.1,0.5-0.2,0.8-0.2c0.3,0,0.6,0.1,0.8,0.2
			c0.2,0.1,0.3,0.4,0.3,0.6v0.5c0,0.3-0.1,0.5-0.3,0.6C856.2,215.5,856,215.6,855.6,215.6z"/>
	</g>
	<g>
		<path d="M827.7,228.5v-7.3h2.7c0.8,0,1.4,0.2,1.8,0.5c0.4,0.3,0.6,0.8,0.6,1.5v0.9c0,0.7-0.2,1.2-0.6,1.5c-0.4,0.3-1,0.5-1.8,0.5
			H829v2.4H827.7z M829,225.1h1.3c0.4,0,0.7-0.1,0.9-0.2c0.2-0.1,0.3-0.4,0.3-0.8v-0.8c0-0.4-0.1-0.6-0.3-0.8
			c-0.2-0.1-0.5-0.2-0.9-0.2H829V225.1z"/>
		<path d="M836.5,228.6c-0.8,0-1.5-0.2-1.9-0.6s-0.7-1-0.7-1.8v-2.5c0-0.8,0.2-1.4,0.7-1.9c0.4-0.4,1.1-0.7,1.9-0.7
			c0.8,0,1.5,0.2,1.9,0.7c0.4,0.4,0.7,1.1,0.7,1.9v2.5c0,0.8-0.2,1.4-0.7,1.8S837.4,228.6,836.5,228.6z M836.5,227.5
			c0.4,0,0.8-0.1,0.9-0.3c0.2-0.2,0.3-0.6,0.3-1.1v-2.3c0-0.5-0.1-0.9-0.3-1.2c-0.2-0.2-0.5-0.3-0.9-0.3c-0.4,0-0.8,0.1-0.9,0.3
			c-0.2,0.2-0.3,0.6-0.3,1.2v2.3c0,0.5,0.1,0.9,0.3,1.1C835.8,227.4,836.1,227.5,836.5,227.5z"/>
		<path d="M842.9,228.6c-0.6,0-1.1-0.1-1.5-0.2c-0.5-0.2-0.9-0.4-1.2-0.7l0.5-1c0.3,0.3,0.6,0.5,1,0.6s0.8,0.2,1.3,0.2
			c0.4,0,0.7-0.1,0.9-0.3c0.2-0.2,0.3-0.4,0.3-0.7c0-0.3-0.1-0.5-0.3-0.7c-0.2-0.1-0.6-0.3-1.2-0.5c-0.9-0.2-1.4-0.5-1.8-0.8
			c-0.3-0.3-0.5-0.8-0.5-1.3c0-0.6,0.2-1.1,0.6-1.5c0.4-0.4,1-0.6,1.8-0.6c0.5,0,0.9,0.1,1.4,0.2c0.5,0.2,0.8,0.4,1.1,0.7l-0.5,1
			c-0.3-0.3-0.6-0.5-1-0.6c-0.3-0.1-0.7-0.2-1.1-0.2c-0.3,0-0.6,0.1-0.8,0.2c-0.2,0.1-0.3,0.4-0.3,0.6c0,0.3,0.1,0.5,0.3,0.6
			c0.2,0.2,0.6,0.3,1.3,0.5c0.8,0.2,1.4,0.5,1.7,0.8c0.3,0.3,0.5,0.8,0.5,1.4c0,0.7-0.2,1.2-0.8,1.6
			C844.3,228.4,843.7,228.6,842.9,228.6z"/>
		<path d="M855.6,225c-0.3,0-0.6-0.1-0.8-0.2c-0.2-0.1-0.3-0.3-0.3-0.6v-0.5c0-0.3,0.1-0.5,0.3-0.6s0.5-0.2,0.8-0.2
			c0.3,0,0.6,0.1,0.8,0.2s0.3,0.4,0.3,0.6v0.5c0,0.3-0.1,0.5-0.3,0.6C856.2,224.9,856,225,855.6,225z M855.6,228.6
			c-0.3,0-0.6-0.1-0.8-0.2c-0.2-0.1-0.3-0.3-0.3-0.6v-0.5c0-0.3,0.1-0.5,0.3-0.6c0.2-0.1,0.5-0.2,0.8-0.2c0.3,0,0.6,0.1,0.8,0.2
			c0.2,0.1,0.3,0.4,0.3,0.6v0.5c0,0.3-0.1,0.5-0.3,0.6C856.2,228.5,856,228.6,855.6,228.6z"/>
	</g>
	<g>
		<path d="M943,189.5v-1.1h1.9v-4.8h-0.3c-0.2,0.4-0.4,0.7-0.7,0.9c-0.3,0.2-0.7,0.3-1.1,0.3l-0.1-1.1c0.5,0,0.9-0.1,1.3-0.4
			c0.4-0.2,0.7-0.6,0.9-1h1.3v6.2h1.7v1.1H943z"/>
		<path d="M949,189.5V188c0-0.6,0.1-1,0.4-1.3c0.3-0.3,0.7-0.6,1.3-0.8l1.1-0.4c0.3-0.1,0.6-0.2,0.7-0.4c0.2-0.1,0.2-0.3,0.2-0.6
			v-0.3c0-0.4-0.1-0.6-0.3-0.8s-0.5-0.2-0.9-0.2c-0.4,0-0.7,0.1-0.8,0.3c-0.2,0.2-0.3,0.5-0.3,1.1l-1.4-0.1c0-0.8,0.3-1.4,0.6-1.8
			s1-0.5,1.8-0.5c0.9,0,1.5,0.2,1.9,0.5s0.6,0.8,0.6,1.5v0.5c0,0.5-0.1,0.9-0.4,1.2c-0.3,0.3-0.7,0.5-1.2,0.7l-1.1,0.4
			c-0.4,0.1-0.6,0.3-0.8,0.4c-0.1,0.1-0.2,0.4-0.2,0.7v0.5h3.8v1.1H949z"/>
		<path d="M958,189.6c-0.8,0-1.5-0.3-1.9-0.8c-0.4-0.5-0.7-1.3-0.7-2.3v-1.3c0-1,0.2-1.8,0.7-2.3s1.1-0.8,1.9-0.8
			c0.8,0,1.5,0.3,1.9,0.8s0.7,1.3,0.7,2.3v1.3c0,1-0.2,1.7-0.7,2.3C959.5,189.3,958.8,189.6,958,189.6z M958,188.5
			c0.5,0,0.8-0.2,1-0.5c0.2-0.3,0.3-0.9,0.3-1.6v-1.1c0-0.8-0.1-1.3-0.3-1.7c-0.2-0.3-0.5-0.5-1-0.5c-0.5,0-0.8,0.2-1,0.5
			c-0.2,0.3-0.3,0.9-0.3,1.7v1.1c0,0.8,0.1,1.3,0.3,1.6C957.2,188.4,957.5,188.5,958,188.5z M958,186.6c-0.2,0-0.4,0-0.5-0.1
			c-0.1-0.1-0.2-0.2-0.2-0.4v-0.5c0-0.2,0.1-0.3,0.2-0.4c0.1-0.1,0.3-0.1,0.5-0.1s0.4,0,0.5,0.1c0.1,0.1,0.2,0.2,0.2,0.4v0.5
			c0,0.2-0.1,0.3-0.2,0.4C958.3,186.6,958.2,186.6,958,186.6z"/>
	</g>
	<g>
		<path d="M936.7,202.5v-1.1h1.9v-4.8h-0.3c-0.2,0.4-0.4,0.7-0.7,0.9c-0.3,0.2-0.7,0.3-1.1,0.3l-0.1-1.1c0.5,0,0.9-0.1,1.3-0.4
			c0.4-0.2,0.7-0.6,0.9-1h1.3v6.2h1.7v1.1H936.7z"/>
		<path d="M945.3,202.6c-0.9,0-1.5-0.2-2-0.7c-0.4-0.5-0.6-1.1-0.6-1.9v-2.2c0-0.9,0.2-1.5,0.7-2c0.4-0.4,1.1-0.7,2-0.7
			c0.8,0,1.3,0.1,1.7,0.4s0.6,0.7,0.8,1.4l-1.4,0.2c-0.1-0.4-0.2-0.6-0.3-0.8c-0.1-0.1-0.4-0.2-0.8-0.2c-0.4,0-0.7,0.1-0.9,0.4
			c-0.2,0.2-0.3,0.7-0.3,1.2v0.8h0.1c0.2-0.2,0.4-0.4,0.6-0.5c0.2-0.1,0.6-0.2,1-0.2c0.7,0,1.2,0.2,1.5,0.6c0.4,0.4,0.5,0.9,0.5,1.6
			v0.2c0,0.7-0.2,1.3-0.7,1.7S946.1,202.6,945.3,202.6z M945.3,201.5c0.4,0,0.7-0.1,0.9-0.3c0.2-0.2,0.3-0.5,0.3-0.9v-0.1
			c0-0.4-0.1-0.7-0.3-1c-0.2-0.2-0.5-0.3-0.9-0.3s-0.7,0.1-0.9,0.3s-0.3,0.5-0.3,1v0.1c0,0.4,0.1,0.7,0.3,0.9
			C944.5,201.4,944.8,201.5,945.3,201.5z"/>
		<path d="M952.6,202.6c-0.7,0-1.2-0.2-1.6-0.5c-0.4-0.3-0.6-0.8-0.6-1.4v-2.6H949v-1h1.4v-1.8h1.4v1.8h2.2v1h-2.2v2.4
			c0,0.3,0.1,0.6,0.2,0.8c0.2,0.2,0.4,0.2,0.7,0.2c0.2,0,0.4,0,0.6,0c0.2,0,0.4-0.1,0.6-0.1l0.2,1c-0.2,0.1-0.4,0.1-0.6,0.2
			S952.9,202.6,952.6,202.6z"/>
		<path d="M955.5,202.5v-7.3h1.4v2.8h0.3c0.1-0.3,0.4-0.6,0.6-0.8s0.6-0.3,1-0.3c0.5,0,0.9,0.2,1.2,0.5c0.3,0.3,0.4,0.7,0.4,1.3v3.8
			h-1.4V199c0-0.3-0.1-0.6-0.2-0.7c-0.1-0.2-0.3-0.3-0.6-0.3c-0.2,0-0.5,0.1-0.7,0.2s-0.5,0.4-0.7,0.6v3.6H955.5z"/>
	</g>
	<g>
		<path d="M945.3,215.6c-1,0-1.6-0.2-2-0.5c-0.4-0.3-0.6-0.9-0.7-1.8l1.4-0.1c0,0.5,0.2,0.9,0.3,1s0.5,0.2,1,0.2
			c0.5,0,0.8-0.1,1-0.3c0.2-0.2,0.3-0.5,0.3-0.9v-0.3c0-0.4-0.1-0.7-0.3-0.8s-0.5-0.3-0.9-0.3h-2.4v-3.7h4.7v1h-3.3v1.6h1.4
			c0.7,0,1.3,0.2,1.7,0.5c0.4,0.3,0.6,0.8,0.6,1.5v0.7c0,0.6-0.2,1.1-0.6,1.4C946.8,215.4,946.1,215.6,945.3,215.6z"/>
		<path d="M951.6,215.6c-0.8,0-1.5-0.3-1.9-0.8c-0.4-0.5-0.7-1.3-0.7-2.3v-1.3c0-1,0.2-1.8,0.7-2.3s1.1-0.8,1.9-0.8
			c0.8,0,1.5,0.3,1.9,0.8s0.7,1.3,0.7,2.3v1.3c0,1-0.2,1.7-0.7,2.3C953.1,215.3,952.5,215.6,951.6,215.6z M951.6,214.5
			c0.5,0,0.8-0.2,1-0.5c0.2-0.3,0.3-0.9,0.3-1.6v-1.1c0-0.8-0.1-1.3-0.3-1.7c-0.2-0.3-0.5-0.5-1-0.5c-0.5,0-0.8,0.2-1,0.5
			c-0.2,0.3-0.3,0.9-0.3,1.7v1.1c0,0.8,0.1,1.3,0.3,1.6C950.8,214.4,951.2,214.5,951.6,214.5z M951.6,212.6c-0.2,0-0.4,0-0.5-0.1
			c-0.1-0.1-0.2-0.2-0.2-0.4v-0.5c0-0.2,0.1-0.3,0.2-0.4c0.1-0.1,0.3-0.1,0.5-0.1s0.4,0,0.5,0.1c0.1,0.1,0.2,0.2,0.2,0.4v0.5
			c0,0.2-0.1,0.3-0.2,0.4C952,212.6,951.8,212.6,951.6,212.6z"/>
		<path d="M958,215.6c-0.9,0-1.6-0.2-2-0.5c-0.4-0.4-0.6-0.9-0.7-1.6l1.4-0.1c0.1,0.5,0.2,0.8,0.3,0.9c0.2,0.1,0.5,0.2,1,0.2
			c0.5,0,0.8-0.1,1-0.2c0.2-0.2,0.3-0.4,0.3-0.8v-0.2c0-0.4-0.1-0.6-0.3-0.8c-0.2-0.2-0.5-0.2-0.9-0.2h-1v-1.1h1
			c0.4,0,0.7-0.1,0.8-0.2c0.2-0.1,0.2-0.3,0.2-0.6v-0.3c0-0.3-0.1-0.5-0.2-0.7c-0.2-0.1-0.5-0.2-0.9-0.2c-0.4,0-0.6,0.1-0.8,0.2
			c-0.2,0.1-0.3,0.4-0.3,0.8l-1.4-0.1c0-0.7,0.3-1.2,0.6-1.5c0.4-0.3,1-0.5,1.8-0.5c0.8,0,1.5,0.1,1.9,0.4s0.6,0.8,0.6,1.4v0.2
			c0,0.4-0.1,0.7-0.4,0.9s-0.6,0.4-1,0.4v0.3c0.5,0,0.8,0.2,1.1,0.5c0.3,0.3,0.4,0.6,0.4,1.1v0.2c0,0.7-0.2,1.2-0.6,1.6
			C959.5,215.4,958.9,215.6,958,215.6z"/>
	</g>
	<g>
		<path d="M928.1,230.4c-1.2-0.2-2.1-0.8-2.7-1.6c-0.6-0.8-0.9-1.9-0.9-3c0-1.2,0.3-2.2,0.9-3c0.6-0.9,1.5-1.4,2.7-1.6l0.1,0.9
			c-0.9,0.2-1.5,0.7-1.8,1.3c-0.3,0.6-0.5,1.4-0.5,2.4s0.2,1.7,0.5,2.4c0.3,0.6,0.9,1.1,1.8,1.3L928.1,230.4z"/>
		<path d="M930.3,228.5v-1.1h1.9v-4.8H932c-0.2,0.4-0.4,0.7-0.7,0.9c-0.3,0.2-0.7,0.3-1.1,0.3l-0.1-1.1c0.5,0,0.9-0.1,1.3-0.4
			c0.4-0.2,0.7-0.6,0.9-1h1.3v6.2h1.7v1.1H930.3z"/>
		<path d="M938.9,228.6c-1,0-1.6-0.2-2-0.5c-0.4-0.3-0.6-0.9-0.7-1.8l1.4-0.1c0,0.5,0.2,0.9,0.3,1s0.5,0.2,1,0.2
			c0.5,0,0.8-0.1,1-0.3c0.2-0.2,0.3-0.5,0.3-0.9v-0.3c0-0.4-0.1-0.7-0.3-0.8s-0.5-0.3-0.9-0.3h-2.4v-3.7h4.7v1h-3.3v1.6h1.4
			c0.7,0,1.3,0.2,1.7,0.5c0.4,0.3,0.6,0.8,0.6,1.5v0.7c0,0.6-0.2,1.1-0.6,1.4C940.4,228.4,939.8,228.6,938.9,228.6z"/>
		<path d="M943.8,230.1l0.7-3.9h2.2l-2,3.9H943.8z"/>
		<path d="M951.6,228.6c-0.8,0-1.5-0.3-1.9-0.8c-0.4-0.5-0.7-1.3-0.7-2.3v-1.3c0-1,0.2-1.8,0.7-2.3s1.1-0.8,1.9-0.8
			c0.8,0,1.5,0.3,1.9,0.8s0.7,1.3,0.7,2.3v1.3c0,1-0.2,1.7-0.7,2.3C953.1,228.3,952.5,228.6,951.6,228.6z M951.6,227.5
			c0.5,0,0.8-0.2,1-0.5c0.2-0.3,0.3-0.9,0.3-1.6v-1.1c0-0.8-0.1-1.3-0.3-1.7c-0.2-0.3-0.5-0.5-1-0.5c-0.5,0-0.8,0.2-1,0.5
			c-0.2,0.3-0.3,0.9-0.3,1.7v1.1c0,0.8,0.1,1.3,0.3,1.6C950.8,227.4,951.2,227.5,951.6,227.5z M951.6,225.6c-0.2,0-0.4,0-0.5-0.1
			c-0.1-0.1-0.2-0.2-0.2-0.4v-0.5c0-0.2,0.1-0.3,0.2-0.4c0.1-0.1,0.3-0.1,0.5-0.1s0.4,0,0.5,0.1c0.1,0.1,0.2,0.2,0.2,0.4v0.5
			c0,0.2-0.1,0.3-0.2,0.4C952,225.6,951.8,225.6,951.6,225.6z"/>
		<path d="M956,230.4l-0.1-1c0.9-0.2,1.5-0.7,1.8-1.3c0.3-0.6,0.5-1.4,0.5-2.3c0-0.9-0.2-1.7-0.5-2.3c-0.3-0.7-0.9-1.1-1.8-1.3
			l0.1-0.9c1.2,0.2,2.1,0.8,2.7,1.6c0.6,0.9,0.9,1.9,0.9,3c0,1.2-0.3,2.2-0.9,3C958.2,229.6,957.3,230.2,956,230.4z"/>
	</g>
</g>
<polyline class="st1" points="377.5,183.5 369.5,183.5 369.5,254.5 377.5,254.5 "/>
<polyline class="st1" points="961.5,79 961.5,71 824,71 824,79 "/>
<polyline class="st1" points="377.5,260.5 369.5,260.5 369.5,307.5 377.5,307.5 "/>
<polyline class="st1" points="377.5,313.5 369.5,313.5 369.5,566.5 377.5,566.5 "/>
<g>
	<g>
		<line class="st1" x1="369.5" y1="219" x2="368.5" y2="219"/>
		<line class="st2" x1="366.5" y1="219" x2="324.5" y2="219"/>
		<line class="st1" x1="323.5" y1="219" x2="322.5" y2="219"/>
	</g>
</g>
<g>
	<g>
		<line class="st1" x1="466" y1="183.5" x2="465" y2="183.5"/>
		<line class="st3" x1="463" y1="183.5" x2="380" y2="183.5"/>
		<line class="st1" x1="379" y1="183.5" x2="378" y2="183.5"/>
	</g>
</g>
<g>
	<g>
		<line class="st1" x1="824.5" y1="80" x2="824.5" y2="81"/>
		<line class="st3" x1="824.5" y1="83" x2="824.5" y2="166"/>
		<line class="st1" x1="824.5" y1="167" x2="824.5" y2="168"/>
	</g>
</g>
<g>
	<g>
		<line class="st1" x1="961.5" y1="80" x2="961.5" y2="81"/>
		<line class="st3" x1="961.5" y1="83" x2="961.5" y2="166"/>
		<line class="st1" x1="961.5" y1="167" x2="961.5" y2="168"/>
	</g>
</g>
<g>
	<g>
		<line class="st1" x1="466" y1="260.5" x2="465" y2="260.5"/>
		<line class="st3" x1="463" y1="260.5" x2="380" y2="260.5"/>
		<line class="st1" x1="379" y1="260.5" x2="378" y2="260.5"/>
	</g>
</g>
<g>
	<g>
		<line class="st1" x1="466" y1="307.5" x2="465" y2="307.5"/>
		<line class="st3" x1="463" y1="307.5" x2="380" y2="307.5"/>
		<line class="st1" x1="379" y1="307.5" x2="378" y2="307.5"/>
	</g>
</g>
<g>
	<g>
		<line class="st1" x1="466" y1="313.5" x2="465" y2="313.5"/>
		<line class="st3" x1="463" y1="313.5" x2="380" y2="313.5"/>
		<line class="st1" x1="379" y1="313.5" x2="378" y2="313.5"/>
	</g>
</g>
<g>
	<g>
		<line class="st1" x1="466" y1="566.5" x2="465" y2="566.5"/>
		<line class="st3" x1="463" y1="566.5" x2="380" y2="566.5"/>
		<line class="st1" x1="379" y1="566.5" x2="378" y2="566.5"/>
	</g>
</g>
<g>
	<g>
		<line class="st1" x1="466" y1="254.5" x2="465" y2="254.5"/>
		<line class="st3" x1="463" y1="254.5" x2="380" y2="254.5"/>
		<line class="st1" x1="379" y1="254.5" x2="378" y2="254.5"/>
	</g>
</g>
<g>
	<g>
		<line class="st1" x1="370" y1="284" x2="369" y2="284"/>
		<line class="st2" x1="367" y1="284" x2="325" y2="284"/>
		<line class="st1" x1="324" y1="284" x2="323" y2="284"/>
	</g>
</g>
<g>
	<g>
		<line class="st1" x1="370" y1="440" x2="369" y2="440"/>
		<line class="st2" x1="367" y1="440" x2="325" y2="440"/>
		<line class="st1" x1="324" y1="440" x2="323" y2="440"/>
	</g>
</g>
<g>
	<path d="M247.3,219.1c-1.3,0-2.2-0.3-2.9-0.8c-0.6-0.6-1-1.4-1-2.5v-2.4c0-1.1,0.3-1.9,1-2.5c0.6-0.6,1.6-0.9,2.9-0.9
		c1.1,0,2,0.3,2.6,0.8c0.6,0.5,0.9,1.3,1,2.2l-1.4,0.1c0-0.6-0.2-1-0.6-1.3c-0.4-0.3-0.9-0.4-1.6-0.4c-0.8,0-1.4,0.2-1.8,0.5
		c-0.4,0.3-0.6,0.9-0.6,1.5v2.4c0,0.7,0.2,1.2,0.6,1.5c0.4,0.3,1,0.5,1.8,0.5c0.7,0,1.2-0.1,1.6-0.4c0.4-0.2,0.6-0.6,0.6-1.1
		l1.4,0.1c-0.1,0.9-0.4,1.6-1,2C249.3,218.9,248.4,219.1,247.3,219.1z"/>
	<path d="M257.3,219.1c-1.2,0-2.1-0.3-2.7-0.9s-0.9-1.4-0.9-2.5v-2.4c0-1.1,0.3-1.9,0.9-2.5s1.5-0.9,2.7-0.9c1.2,0,2.1,0.3,2.7,0.9
		s0.9,1.4,0.9,2.5v2.4c0,1.1-0.3,1.9-0.9,2.5S258.4,219.1,257.3,219.1z M257.3,217.8c0.7,0,1.3-0.2,1.6-0.5s0.5-0.8,0.5-1.5v-2.4
		c0-0.7-0.2-1.2-0.5-1.5c-0.4-0.3-0.9-0.5-1.6-0.5s-1.3,0.2-1.6,0.5c-0.4,0.3-0.5,0.9-0.5,1.5v2.4c0,0.7,0.2,1.2,0.5,1.5
		S256.5,217.8,257.3,217.8z"/>
	<path d="M263.8,219v-8.7h1.5v1.5h0.4c0.2-0.5,0.5-0.9,1-1.2c0.5-0.3,1-0.4,1.6-0.4c0.9,0,1.6,0.3,2.1,0.8c0.5,0.5,0.8,1.3,0.8,2.2
		v5.9h-1.5v-5.6c0-0.6-0.1-1.1-0.4-1.4c-0.3-0.3-0.7-0.5-1.3-0.5c-0.4,0-0.9,0.1-1.3,0.4c-0.5,0.3-0.9,0.6-1.3,1.1v6H263.8z"/>
	<path d="M277.8,219.1c-0.7,0-1.4-0.1-2.1-0.3c-0.7-0.2-1.3-0.6-1.9-1l0.7-1.1c0.5,0.4,1,0.7,1.6,0.9c0.6,0.2,1.2,0.3,1.8,0.3
		c0.5,0,1-0.1,1.4-0.2c0.5-0.2,0.7-0.5,0.7-1c0-0.4-0.2-0.7-0.6-0.9c-0.4-0.2-1.1-0.3-2.1-0.4c-1.1-0.1-1.9-0.4-2.4-0.8
		c-0.5-0.4-0.8-1-0.8-1.8c0-0.9,0.3-1.5,1-2c0.7-0.4,1.4-0.7,2.3-0.7c0.7,0,1.4,0.1,2,0.3c0.6,0.2,1.2,0.6,1.8,1l-0.7,1.1
		c-0.4-0.4-0.9-0.6-1.5-0.9c-0.5-0.2-1.1-0.3-1.6-0.3c-0.5,0-0.9,0.1-1.3,0.3c-0.4,0.2-0.6,0.5-0.6,1c0,0.4,0.2,0.7,0.5,0.9
		c0.4,0.2,1,0.3,2,0.5c1.1,0.1,1.9,0.4,2.5,0.8s0.8,1,0.8,1.7c0,0.9-0.4,1.6-1.1,2C279.5,218.9,278.7,219.1,277.8,219.1z"/>
	<path d="M287.8,219.1c-1.2,0-2.1-0.3-2.7-0.9s-0.9-1.4-0.9-2.5v-2.4c0-1.1,0.3-1.9,0.9-2.5s1.5-0.9,2.7-0.9c1.2,0,2.1,0.3,2.7,0.9
		s0.9,1.4,0.9,2.5v2.4c0,1.1-0.3,1.9-0.9,2.5S289,219.1,287.8,219.1z M287.8,217.8c0.7,0,1.3-0.2,1.6-0.5s0.5-0.8,0.5-1.5v-2.4
		c0-0.7-0.2-1.2-0.5-1.5c-0.4-0.3-0.9-0.5-1.6-0.5s-1.3,0.2-1.6,0.5c-0.4,0.3-0.5,0.9-0.5,1.5v2.4c0,0.7,0.2,1.2,0.5,1.5
		S287.1,217.8,287.8,217.8z"/>
	<path d="M294.4,219v-1.3h2.9v-9h-2.9v-1.3h4.4v10.3h2.9v1.3H294.4z"/>
	<path d="M311.8,217.1c-0.3,0.7-0.7,1.3-1.2,1.6c-0.5,0.3-1.4,0.5-2.5,0.5c-1.2,0-2.1-0.3-2.7-0.8s-1-1.4-1-2.5v-2.3
		c0-1.1,0.3-2,1-2.5s1.6-0.8,2.6-0.8c1.1,0,2,0.3,2.6,0.9c0.7,0.6,1,1.4,1,2.6v1.3H306v0.9c0,0.7,0.2,1.3,0.5,1.6s0.9,0.5,1.6,0.5
		c0.7,0,1.2-0.1,1.5-0.3c0.3-0.2,0.6-0.5,0.7-0.9L311.8,217.1z M306,213.5v0.3h4.4v-0.2c0-0.8-0.2-1.4-0.5-1.7
		c-0.4-0.4-0.9-0.5-1.6-0.5c-0.7,0-1.3,0.2-1.6,0.5C306.2,212.2,306,212.8,306,213.5z"/>
</g>
<g>
	<path d="M866.2,54.1c-0.7,0-1.4-0.1-2.1-0.3c-0.7-0.2-1.3-0.6-1.9-1l0.7-1.1c0.5,0.4,1,0.7,1.6,0.9s1.2,0.3,1.8,0.3
		c0.5,0,1-0.1,1.4-0.2s0.7-0.5,0.7-1c0-0.4-0.2-0.7-0.6-0.9c-0.4-0.2-1.1-0.3-2.1-0.4c-1.1-0.1-1.9-0.4-2.4-0.8
		c-0.5-0.4-0.8-1-0.8-1.8c0-0.9,0.3-1.5,1-2c0.7-0.4,1.4-0.7,2.3-0.7c0.7,0,1.3,0.1,2,0.3c0.6,0.2,1.2,0.6,1.8,1l-0.7,1.1
		c-0.4-0.4-0.9-0.6-1.5-0.9c-0.5-0.2-1.1-0.3-1.6-0.3c-0.5,0-0.9,0.1-1.3,0.3c-0.4,0.2-0.6,0.5-0.6,1c0,0.4,0.2,0.7,0.5,0.9
		c0.4,0.2,1,0.3,2,0.5c1.1,0.1,1.9,0.4,2.5,0.8s0.8,1,0.8,1.7c0,0.9-0.4,1.6-1.1,2C867.9,53.9,867.1,54.1,866.2,54.1z"/>
	<path d="M877.7,54.1c-1,0-1.7-0.2-2.2-0.7c-0.5-0.5-0.8-1.2-0.8-2.2v-4.7h-2.5v-1.3h2.5v-2.9h1.5v2.9h3.8v1.3h-3.8v4.5
		c0,0.6,0.1,1,0.4,1.3s0.7,0.4,1.3,0.4c0.4,0,0.7,0,1-0.1c0.3-0.1,0.6-0.1,0.9-0.2l0.3,1.3c-0.3,0.1-0.7,0.2-1.1,0.2
		C878.6,54.1,878.2,54.1,877.7,54.1z"/>
	<path d="M885.2,54.1c-0.7,0-1.4-0.2-2-0.6c-0.6-0.4-0.9-1-0.9-1.9c0-0.8,0.2-1.4,0.8-1.8c0.5-0.4,1.1-0.7,1.8-0.7h3v-1.3
		c0-0.5-0.2-0.8-0.5-1.1s-0.8-0.4-1.4-0.4c-0.6,0-1.1,0.1-1.4,0.3c-0.3,0.2-0.6,0.6-0.7,1.3l-1.3-0.3c0.2-0.8,0.5-1.4,1.1-1.9
		c0.6-0.4,1.3-0.6,2.3-0.6c1,0,1.8,0.2,2.4,0.6s1,1.1,1,2v3.9c0,0.5,0.1,0.9,0.4,1c0.3,0.1,0.7,0.1,1.3,0.1V54
		c-0.6,0.1-1.2,0-1.7-0.1s-0.8-0.6-0.9-1.4h-0.3c-0.3,0.4-0.7,0.8-1.2,1.1C886.5,54,885.9,54.1,885.2,54.1z M885.4,52.9
		c0.5,0,1-0.1,1.4-0.3c0.4-0.2,0.8-0.5,1.1-0.9v-1.4h-2.6c-0.4,0-0.8,0.1-1,0.3c-0.3,0.2-0.4,0.5-0.4,1c0,0.4,0.1,0.7,0.4,1
		C884.4,52.8,884.8,52.9,885.4,52.9z"/>
	<path d="M898.1,54.1c-1,0-1.7-0.2-2.2-0.7c-0.5-0.5-0.8-1.2-0.8-2.2v-4.7h-2.5v-1.3h2.5v-2.9h1.5v2.9h3.8v1.3h-3.8v4.5
		c0,0.6,0.1,1,0.4,1.3s0.7,0.4,1.3,0.4c0.4,0,0.7,0,1-0.1c0.3-0.1,0.6-0.1,0.9-0.2l0.3,1.3c-0.3,0.1-0.7,0.2-1.1,0.2
		C899,54.1,898.6,54.1,898.1,54.1z"/>
	<path d="M906,54.1c-0.8,0-1.5-0.3-2-0.8c-0.5-0.5-0.8-1.3-0.8-2.2v-5.9h1.5v5.6c0,0.6,0.1,1.1,0.4,1.4c0.3,0.3,0.7,0.5,1.3,0.5
		c0.5,0,0.9-0.1,1.3-0.4c0.4-0.2,0.9-0.6,1.3-1.2v-6h1.5V54H909v-1.5h-0.4c-0.2,0.5-0.5,0.9-1,1.2C907.1,54,906.6,54.1,906,54.1z"/>
	<path d="M917.1,54.1c-0.7,0-1.4-0.1-2.1-0.3c-0.7-0.2-1.3-0.6-1.9-1l0.7-1.1c0.5,0.4,1,0.7,1.6,0.9s1.2,0.3,1.8,0.3
		c0.5,0,1-0.1,1.4-0.2s0.7-0.5,0.7-1c0-0.4-0.2-0.7-0.6-0.9c-0.4-0.2-1.1-0.3-2.1-0.4c-1.1-0.1-1.9-0.4-2.4-0.8
		c-0.5-0.4-0.8-1-0.8-1.8c0-0.9,0.3-1.5,1-2c0.7-0.4,1.4-0.7,2.3-0.7c0.7,0,1.3,0.1,2,0.3c0.6,0.2,1.2,0.6,1.8,1l-0.7,1.1
		c-0.4-0.4-0.9-0.6-1.5-0.9c-0.5-0.2-1.1-0.3-1.6-0.3c-0.5,0-0.9,0.1-1.3,0.3c-0.4,0.2-0.6,0.5-0.6,1c0,0.4,0.2,0.7,0.5,0.9
		c0.4,0.2,1,0.3,2,0.5c1.1,0.1,1.9,0.4,2.5,0.8s0.8,1,0.8,1.7c0,0.9-0.4,1.6-1.1,2C918.9,53.9,918,54.1,917.1,54.1z"/>
</g>
<g>
	<path d="M232.8,286.5c-0.3,0.5-0.6,0.9-1,1.2c-0.4,0.3-0.9,0.4-1.5,0.4c-0.9,0-1.6-0.3-2.1-0.9c-0.5-0.6-0.7-1.4-0.7-2.4v-2.4
		c0-1.1,0.3-1.9,1-2.5c0.7-0.6,1.6-0.9,2.8-0.9c0.3,0,0.7,0,1,0.1s0.7,0.2,1,0.3v-3.2h1.5V288h-1.5v-1.5H232.8z M230.7,286.8
		c0.5,0,0.9-0.1,1.4-0.4c0.4-0.3,0.8-0.6,1.3-1.1V281c-0.3-0.2-0.6-0.3-1-0.4c-0.3-0.1-0.7-0.1-1.1-0.1c-0.8,0-1.4,0.2-1.7,0.5
		c-0.4,0.3-0.6,0.9-0.6,1.6v2.3c0,0.6,0.1,1.1,0.4,1.5C229.6,286.6,230.1,286.8,230.7,286.8z"/>
	<path d="M237.6,288v-1.3h2.9v-6.1h-2.9v-1.3h4.4v7.4h2.9v1.3H237.6z M241.3,277.7c-0.4,0-0.7-0.1-0.9-0.2c-0.2-0.1-0.3-0.3-0.3-0.7
		v-0.1c0-0.3,0.1-0.6,0.3-0.7c0.2-0.1,0.5-0.2,0.9-0.2s0.7,0.1,0.9,0.2c0.2,0.1,0.3,0.3,0.3,0.7v0.1c0,0.3-0.1,0.5-0.3,0.7
		C241.9,277.6,241.6,277.7,241.3,277.7z"/>
	<path d="M251.6,288.1c-0.7,0-1.4-0.1-2.1-0.3c-0.7-0.2-1.3-0.6-1.9-1l0.7-1.1c0.5,0.4,1,0.7,1.6,0.9c0.6,0.2,1.2,0.3,1.8,0.3
		c0.5,0,1-0.1,1.4-0.2c0.5-0.2,0.7-0.5,0.7-1c0-0.4-0.2-0.7-0.6-0.9c-0.4-0.2-1.1-0.3-2.1-0.4c-1.1-0.1-1.9-0.4-2.4-0.8
		c-0.5-0.4-0.8-1-0.8-1.8c0-0.9,0.3-1.5,1-2c0.7-0.4,1.4-0.7,2.3-0.7c0.7,0,1.4,0.1,2,0.3c0.6,0.2,1.2,0.6,1.8,1l-0.7,1.1
		c-0.4-0.4-0.9-0.6-1.5-0.9c-0.5-0.2-1.1-0.3-1.6-0.3c-0.5,0-0.9,0.1-1.3,0.3c-0.4,0.2-0.6,0.5-0.6,1c0,0.4,0.2,0.7,0.5,0.9
		c0.4,0.2,1,0.3,2,0.5c1.1,0.1,1.9,0.4,2.5,0.8s0.8,1,0.8,1.7c0,0.9-0.4,1.6-1.1,2C253.3,287.9,252.5,288.1,251.6,288.1z"/>
	<path d="M261.5,288.1c-0.3,0-0.7,0-1-0.1c-0.4-0.1-0.7-0.2-1-0.3v3.2H258v-11.6h1.5v1.5h0.4c0.2-0.5,0.6-0.9,1.1-1.2
		c0.5-0.3,1-0.4,1.5-0.4c0.9,0,1.6,0.3,2.1,0.9c0.5,0.6,0.8,1.4,0.8,2.4v2.4c0,1-0.3,1.8-1,2.4S262.7,288.1,261.5,288.1z
		 M261.5,286.9c0.8,0,1.4-0.2,1.8-0.5c0.4-0.3,0.5-0.9,0.5-1.6v-2.4c0-0.7-0.1-1.2-0.4-1.5s-0.7-0.5-1.3-0.5c-0.5,0-0.9,0.1-1.4,0.4
		c-0.4,0.2-0.8,0.6-1.3,1.2v4.3c0.3,0.2,0.6,0.3,0.9,0.4C260.7,286.8,261.1,286.9,261.5,286.9z"/>
	<path d="M268.2,288v-1.3h2.9v-9h-2.9v-1.3h4.4v10.3h2.9v1.3H268.2z"/>
	<path d="M280.8,288.1c-0.7,0-1.4-0.2-2-0.6c-0.6-0.4-0.9-1-0.9-1.9c0-0.8,0.2-1.4,0.7-1.8s1.1-0.7,1.8-0.7h3v-1.3
		c0-0.5-0.2-0.8-0.5-1.1c-0.3-0.3-0.8-0.4-1.4-0.4c-0.6,0-1.1,0.1-1.4,0.3c-0.3,0.2-0.6,0.6-0.7,1.3l-1.3-0.3
		c0.2-0.8,0.5-1.4,1.1-1.9c0.6-0.4,1.4-0.6,2.3-0.6c1,0,1.8,0.2,2.4,0.6s1,1.1,1,2v3.9c0,0.5,0.1,0.9,0.4,1c0.3,0.1,0.7,0.1,1.3,0.1
		v1.3c-0.6,0.1-1.2,0-1.7-0.1s-0.8-0.6-0.9-1.4h-0.3c-0.3,0.4-0.7,0.8-1.2,1.1C282,288,281.4,288.1,280.8,288.1z M281,286.9
		c0.5,0,1-0.1,1.4-0.3c0.4-0.2,0.8-0.5,1.1-0.9v-1.4h-2.6c-0.4,0-0.8,0.1-1,0.3c-0.3,0.2-0.4,0.5-0.4,1c0,0.4,0.1,0.7,0.4,1
		C280,286.8,280.4,286.9,281,286.9z"/>
	<path d="M289.6,291c-0.2,0-0.5,0-0.7,0c-0.2,0-0.5-0.1-0.7-0.1l0.2-1.3c0.3,0.1,0.5,0.1,0.7,0.1c0.2,0,0.4,0,0.6,0
		c0.4,0,0.8-0.1,1.2-0.4c0.3-0.3,0.6-0.7,0.8-1.2l0-0.1h-0.5l-3.1-8.7h1.6l2.5,7.5l2.4-7.5h1.5l-3.2,9c-0.3,0.9-0.8,1.6-1.3,2.1
		C291.1,290.8,290.4,291,289.6,291z"/>
	<path d="M306,286.1c-0.3,0.7-0.7,1.3-1.2,1.6c-0.5,0.3-1.4,0.5-2.5,0.5c-1.2,0-2.1-0.3-2.7-0.8s-1-1.4-1-2.5v-2.3
		c0-1.1,0.3-2,1-2.5s1.6-0.8,2.6-0.8c1.1,0,2,0.3,2.6,0.9c0.7,0.6,1,1.4,1,2.6v1.3h-5.8v0.9c0,0.7,0.2,1.3,0.5,1.6s0.9,0.5,1.6,0.5
		c0.7,0,1.2-0.1,1.5-0.3c0.3-0.2,0.6-0.5,0.7-0.9L306,286.1z M300.2,282.5v0.3h4.4v-0.2c0-0.8-0.2-1.4-0.5-1.7
		c-0.4-0.4-0.9-0.5-1.6-0.5c-0.7,0-1.3,0.2-1.6,0.5C300.4,281.2,300.2,281.8,300.2,282.5z"/>
	<path d="M309.6,288v-8.7h1.5v1.5h0.4c0.2-0.6,0.5-1,0.9-1.2s0.9-0.4,1.5-0.4c0.6,0,1.2,0.2,1.6,0.6c0.4,0.4,0.7,1,0.7,1.8v1.3h-1.4
		v-0.8c0-0.6-0.1-1-0.4-1.2c-0.2-0.3-0.6-0.4-1.1-0.4c-0.5,0-0.9,0.1-1.2,0.3c-0.4,0.2-0.7,0.6-1,1v6.1H309.6z"/>
</g>
<g>
	<path d="M231.2,445.1c-0.7,0-1.4-0.1-2.1-0.3c-0.7-0.2-1.3-0.6-1.9-1l0.7-1.1c0.5,0.4,1,0.7,1.6,0.9c0.6,0.2,1.2,0.3,1.8,0.3
		c0.5,0,1-0.1,1.4-0.2c0.5-0.2,0.7-0.5,0.7-1c0-0.4-0.2-0.7-0.6-0.9c-0.4-0.2-1.1-0.3-2.1-0.4c-1.1-0.1-1.9-0.4-2.4-0.8
		c-0.5-0.4-0.8-1-0.8-1.8c0-0.9,0.3-1.5,1-2c0.7-0.4,1.4-0.7,2.3-0.7c0.7,0,1.4,0.1,2,0.3c0.6,0.2,1.2,0.6,1.8,1l-0.7,1.2
		c-0.4-0.4-0.9-0.6-1.5-0.9c-0.5-0.2-1.1-0.3-1.6-0.3c-0.5,0-0.9,0.1-1.3,0.3c-0.4,0.2-0.6,0.5-0.6,1c0,0.4,0.2,0.7,0.5,0.9
		s1,0.3,2,0.5c1.1,0.1,1.9,0.4,2.5,0.8s0.8,1,0.8,1.7c0,0.9-0.4,1.6-1.1,2C232.9,444.9,232.1,445.1,231.2,445.1z"/>
	<path d="M244.9,443.1c-0.3,0.7-0.7,1.3-1.2,1.6c-0.5,0.3-1.4,0.5-2.5,0.5c-1.2,0-2.1-0.3-2.7-0.8c-0.6-0.6-1-1.4-1-2.5v-2.3
		c0-1.1,0.3-2,1-2.5s1.6-0.8,2.6-0.8c1.1,0,2,0.3,2.6,0.9c0.7,0.6,1,1.4,1,2.6v1.3h-5.8v0.9c0,0.7,0.2,1.3,0.5,1.6s0.9,0.5,1.6,0.5
		c0.7,0,1.2-0.1,1.5-0.3s0.6-0.5,0.7-0.9L244.9,443.1z M239.1,439.5v0.3h4.4v-0.2c0-0.8-0.2-1.4-0.5-1.7c-0.4-0.4-0.9-0.5-1.6-0.5
		c-0.7,0-1.3,0.2-1.6,0.5C239.3,438.2,239.1,438.8,239.1,439.5z"/>
	<path d="M253.6,447.9v-4.4h-0.4c-0.3,0.5-0.6,0.9-1,1.2s-0.9,0.4-1.5,0.4c-0.9,0-1.6-0.3-2.1-0.9s-0.7-1.4-0.7-2.5v-2.4
		c0-1.1,0.4-1.9,1.1-2.5c0.7-0.6,1.6-0.9,2.7-0.9c0.6,0,1.3,0.1,1.9,0.2c0.6,0.2,1.2,0.4,1.7,0.7v10.9H253.6z M251,443.8
		c0.5,0,0.9-0.1,1.4-0.4c0.4-0.2,0.8-0.6,1.3-1.2V438c-0.3-0.2-0.7-0.3-1-0.4c-0.3-0.1-0.7-0.1-1.1-0.1c-0.6,0-1.2,0.2-1.6,0.5
		c-0.5,0.3-0.7,0.9-0.7,1.6v2.2c0,0.7,0.1,1.2,0.4,1.6C250,443.6,250.4,443.8,251,443.8z"/>
	<path d="M260.8,445.1c-0.8,0-1.5-0.3-2-0.8c-0.5-0.5-0.8-1.3-0.8-2.2v-5.9h1.5v5.6c0,0.6,0.1,1.1,0.4,1.4c0.3,0.3,0.7,0.5,1.3,0.5
		c0.5,0,0.9-0.1,1.3-0.4c0.4-0.2,0.9-0.6,1.3-1.2v-6h1.5v8.7h-1.5v-1.5h-0.4c-0.2,0.5-0.5,0.9-1,1.2
		C261.9,445,261.4,445.1,260.8,445.1z"/>
	<path d="M275.5,443.1c-0.3,0.7-0.7,1.3-1.2,1.6c-0.5,0.3-1.4,0.5-2.5,0.5c-1.2,0-2.1-0.3-2.7-0.8c-0.6-0.6-1-1.4-1-2.5v-2.3
		c0-1.1,0.3-2,1-2.5s1.6-0.8,2.6-0.8c1.1,0,2,0.3,2.6,0.9c0.7,0.6,1,1.4,1,2.6v1.3h-5.8v0.9c0,0.7,0.2,1.3,0.5,1.6s0.9,0.5,1.6,0.5
		c0.7,0,1.2-0.1,1.5-0.3s0.6-0.5,0.7-0.9L275.5,443.1z M269.6,439.5v0.3h4.4v-0.2c0-0.8-0.2-1.4-0.5-1.7c-0.4-0.4-0.9-0.5-1.6-0.5
		c-0.7,0-1.3,0.2-1.6,0.5C269.8,438.2,269.6,438.8,269.6,439.5z"/>
	<path d="M278.4,445v-8.7h1.5v1.5h0.4c0.2-0.5,0.5-0.9,1-1.2c0.5-0.3,1-0.4,1.6-0.4c0.9,0,1.6,0.3,2.1,0.8c0.5,0.5,0.8,1.3,0.8,2.2
		v5.9h-1.5v-5.6c0-0.6-0.1-1.1-0.4-1.4c-0.3-0.3-0.7-0.5-1.3-0.5c-0.4,0-0.9,0.1-1.3,0.4c-0.5,0.3-0.9,0.6-1.3,1.1v6H278.4z"/>
	<path d="M292.4,445.1c-1.3,0-2.2-0.3-2.9-0.8c-0.6-0.6-1-1.4-1-2.5v-2.4c0-1.1,0.3-1.9,1-2.5c0.6-0.6,1.6-0.9,2.9-0.9
		c1.1,0,2,0.3,2.6,0.8c0.6,0.5,0.9,1.3,1,2.2l-1.4,0.1c0-0.6-0.2-1-0.6-1.3s-0.9-0.4-1.6-0.4c-0.8,0-1.4,0.2-1.8,0.5
		c-0.4,0.3-0.6,0.9-0.6,1.5v2.4c0,0.7,0.2,1.2,0.6,1.5c0.4,0.3,1,0.5,1.8,0.5c0.7,0,1.2-0.1,1.6-0.4c0.4-0.2,0.6-0.6,0.6-1.1
		l1.4,0.1c-0.1,0.9-0.4,1.6-1,2C294.4,444.9,293.5,445.1,292.4,445.1z"/>
	<path d="M306,443.1c-0.3,0.7-0.7,1.3-1.2,1.6c-0.5,0.3-1.4,0.5-2.5,0.5c-1.2,0-2.1-0.3-2.7-0.8c-0.6-0.6-1-1.4-1-2.5v-2.3
		c0-1.1,0.3-2,1-2.5s1.6-0.8,2.6-0.8c1.1,0,2,0.3,2.6,0.9c0.7,0.6,1,1.4,1,2.6v1.3h-5.8v0.9c0,0.7,0.2,1.3,0.5,1.6s0.9,0.5,1.6,0.5
		c0.7,0,1.2-0.1,1.5-0.3s0.6-0.5,0.7-0.9L306,443.1z M300.2,439.5v0.3h4.4v-0.2c0-0.8-0.2-1.4-0.5-1.7c-0.4-0.4-0.9-0.5-1.6-0.5
		c-0.7,0-1.3,0.2-1.6,0.5C300.4,438.2,300.2,438.8,300.2,439.5z"/>
	<path d="M309.6,445v-8.7h1.5v1.5h0.4c0.2-0.6,0.5-1,0.9-1.2s0.9-0.4,1.5-0.4c0.6,0,1.2,0.2,1.6,0.6c0.4,0.4,0.7,1,0.7,1.8v1.3h-1.4
		v-0.8c0-0.6-0.1-1-0.4-1.2c-0.2-0.3-0.6-0.4-1.1-0.4c-0.5,0-0.9,0.1-1.2,0.3c-0.4,0.2-0.7,0.6-1,1v6.1H309.6z"/>
</g>
</svg>
