<?xml version="1.0" encoding="utf-8"?>
<!-- Generator: Adobe Illustrator 22.0.0, SVG Export Plug-In . SVG Version: 6.00 Build 0)  -->
<svg version="1.1" id="Layer_3" xmlns="http://www.w3.org/2000/svg" xmlns:xlink="http://www.w3.org/1999/xlink" x="0px" y="0px"
	 viewBox="0 0 512 512" style="enable-background:new 0 0 512 512;" xml:space="preserve">
<g>
	<path d="M499,13v486H13V13H499 M512,0H0v512h512V0L512,0z"/>
</g>
<path d="M148.4,363.6h-19.5v-20.1h117.4v20.1h-19.5V422h58.4v-58.4h-19.5v-20.1h117.4v20.1h-19.5V422H422v-58.4h-19.5v-39.6H265.7
	v-9l49.3-49.3h48.6v19.5H422v-58.4h-58.4v19.5h-48.6l-49.4-49.9v-9.1h136.8v-38.9H422V90h-58.4v58.4h19.5v19.5H265.7v-19.5h19.5V90
	h-58.4v58.4h19.5v19.5H128.9v-19.5h19.5V90H90v58.4h19.5v38.9h136.8v9.1l-49.4,49.9h-48.6v-19.5H90v58.4h58.4v-19.5h48.6l49.3,49.3
	v9H109.5v39.6H90V422h58.4V363.6z M265.7,402.5h-19.5v-19.5h19.5V402.5z M402.5,402.5h-19.5v-19.5h19.5V402.5z M383.1,246.3h19.5
	v19.5h-19.5V246.3z M383.1,109.5h19.5v19.5h-19.5V109.5z M246.3,109.5h19.5v19.5h-19.5V109.5z M109.5,109.5h19.5v19.5h-19.5V109.5z
	 M128.9,265.7h-19.5v-19.5h19.5V265.7z M256,214.2l41.3,41.8L256,297.3L214.7,256L256,214.2z M128.9,402.5h-19.5v-19.5h19.5V402.5z"
	/>
</svg>
