<?xml version="1.0" encoding="utf-8"?>
<!-- Generator: Adobe Illustrator 22.0.0, SVG Export Plug-In . SVG Version: 6.00 Build 0)  -->
<svg version="1.1" id="Layer_3" xmlns="http://www.w3.org/2000/svg" xmlns:xlink="http://www.w3.org/1999/xlink" x="0px" y="0px"
	 viewBox="0 0 512 512" style="enable-background:new 0 0 512 512;" xml:space="preserve">
<g>
	<path d="M508.3,249.5l-100.4-80.3C365,134.9,310.9,116,256,116s-109,18.9-151.9,53.2L3.7,249.5c-2,1.6-3,4-3,6.5
		c0,2.5,1.2,4.9,3,6.5l100.4,80.3C147,377.1,201.1,396,256,396s109-18.9,151.9-53.2l100.4-80.3c2-1.6,3-4,3-6.5
		C511.3,253.5,510.2,251.1,508.3,249.5z M313.7,365.2v-59.8h55.5C358,331,338.3,352.2,313.7,365.2z M375,289h-69.6
		c-4.5,0-8.2,3.7-8.2,8.2v75.2c-12.9,4.6-26.7,7.3-41.2,7.3c-68.2,0-123.6-55.5-123.6-123.6c0-8.5,0.9-16.8,2.5-24.7h71.7
		c4.5,0,8.2-3.7,8.2-8.2v-83.5c12.9-4.6,26.7-7.3,41.2-7.3c2.8,0,5.5,0.3,8.2,0.4v40.8c0,4.5,3.7,8.2,8.2,8.2h33
		c4.5,0,8.2-3.7,8.2-8.2v-26.8c39.1,20.7,65.9,61.9,65.9,109.2C379.6,267.5,377.9,278.5,375,289z M198.3,146.8v68h-58.6
		C150.1,185.5,171.1,161.2,198.3,146.8z M280.7,134.9c5.7,1.2,11.1,2.8,16.5,4.8v25.8h-16.5V134.9z M114.4,330L22,256l92.5-74
		c14.3-11.5,30-21,46.5-28.5C133.3,179.1,116,215.5,116,256s17.3,76.9,44.9,102.5C144.4,350.8,128.7,341.3,114.4,330z M397.6,330
		c-14.3,11.5-30,21-46.5,28.5C378.7,332.9,396,296.5,396,256s-17.3-76.9-44.9-102.5c16.5,7.7,32.1,17.2,46.5,28.5l92.5,74L397.6,330
		z"/>
	<rect x="165.4" y="181.9" width="16.5" height="16.5"/>
	<rect x="330.1" y="321.9" width="16.5" height="16.5"/>
	<path d="M231.3,247.8h-82.4v16.5h16.5V289c0,4.5,3.7,8.2,8.2,8.2h8.2v33h16.5v-33h16.5v16.5h16.5V289c0-4.5-3.7-8.2-8.2-8.2h-41.2
		v-16.5h57.7c4.5,0,8.2-3.7,8.2-8.2v-24.7h-16.5L231.3,247.8L231.3,247.8z"/>
	<rect x="231.3" y="181.9" width="16.5" height="33"/>
	<rect x="231.3" y="148.9" width="16.5" height="16.5"/>
	<path d="M214.8,346.6v-16.5h-16.5v24.7c0,4.5,3.7,8.2,8.2,8.2h33c4.5,0,8.2-3.7,8.2-8.2v-41.2h-16.5v33H214.8z"/>
	<path d="M297.2,256h-24.7c-4.5,0-8.2,3.7-8.2,8.2v33h16.5v-24.7h24.7c4.5,0,8.2-3.7,8.2-8.2v-24.7h-16.5V256z"/>
	<path d="M338.4,206.6h-41.2V223h33v49.4h16.5v-57.7C346.6,210.3,342.9,206.6,338.4,206.6z"/>
	<rect x="264.2" y="198.3" width="16.5" height="33"/>
	<rect x="264.2" y="313.7" width="16.5" height="16.5"/>
	<rect x="264.2" y="346.6" width="16.5" height="16.5"/>
</g>
</svg>
