<?xml version="1.0" encoding="utf-8"?>
<!-- Generator: Adobe Illustrator 22.0.0, SVG Export Plug-In . SVG Version: 6.00 Build 0)  -->
<svg version="1.1" id="Layer_1" xmlns="http://www.w3.org/2000/svg" xmlns:xlink="http://www.w3.org/1999/xlink" x="0px" y="0px"
	 viewBox="0 0 60 16.2" style="enable-background:new 0 0 60 16.2;" xml:space="preserve">
<style type="text/css">
	.st0{fill:#0F0D0E;}
</style>
<g>
	<path class="st0" d="M11.6,6.9h-5C6.4,6.9,6.3,7,6.3,7.2v2.5c0,0.1,0.1,0.2,0.2,0.2h2v3.1c0,0-0.4,0.2-1.7,0.2
		c-1.4,0-3.5-0.5-3.5-4.9c0-4.4,2.1-5,4.1-5c1.7,0,2.4,0.3,2.9,0.4c0.1,0,0.3-0.1,0.3-0.2L11.2,1c0-0.1,0-0.1-0.1-0.2
		C10.9,0.6,9.7,0,6.8,0C3.5,0,0,1.4,0,8.3c0,6.9,4,7.9,7.3,7.9c2.8,0,4.4-1.2,4.4-1.2c0.1,0,0.1-0.1,0.1-0.2V7.2
		C11.8,7,11.7,6.9,11.6,6.9z"/>
	<path class="st0" d="M37.5,0.8c0-0.1-0.1-0.2-0.2-0.2h-2.8c-0.1,0-0.2,0.1-0.2,0.2c0,0,0,5.5,0,5.5h-4.4V0.8c0-0.1-0.1-0.2-0.2-0.2
		h-2.8c-0.1,0-0.2,0.1-0.2,0.2v14.8c0,0.1,0.1,0.2,0.2,0.2h2.8c0.1,0,0.2-0.1,0.2-0.2V9.3h4.4c0,0,0,6.4,0,6.4
		c0,0.1,0.1,0.2,0.2,0.2h2.8c0.1,0,0.2-0.1,0.2-0.2V0.8z"/>
	<g>
		<g>
			<path class="st0" d="M16.9,2.8c0-1-0.8-1.8-1.8-1.8c-1,0-1.8,0.8-1.8,1.8c0,1,0.8,1.8,1.8,1.8C16.1,4.6,16.9,3.8,16.9,2.8z"/>
			<path class="st0" d="M16.7,12.5c0-0.4,0-6.9,0-6.9c0-0.1-0.1-0.2-0.2-0.2h-2.8c-0.1,0-0.2,0.1-0.2,0.3c0,0,0,8.2,0,9.8
				c0,0.3,0.2,0.4,0.4,0.4c0,0,1.2,0,2.5,0c0.3,0,0.3-0.1,0.3-0.4C16.7,15,16.7,12.9,16.7,12.5z"/>
		</g>
	</g>
	<path class="st0" d="M48.3,5.5h-2.8c-0.1,0-0.2,0.1-0.2,0.2V13c0,0-0.7,0.5-1.7,0.5c-1,0-1.3-0.5-1.3-1.5c0-1,0-6.3,0-6.3
		c0-0.1-0.1-0.2-0.2-0.2h-2.9c-0.1,0-0.2,0.1-0.2,0.2c0,0,0,3.9,0,6.8c0,3,1.6,3.7,3.9,3.7c1.9,0,3.4-1,3.4-1s0.1,0.5,0.1,0.6
		c0,0.1,0.1,0.1,0.2,0.1l1.8,0c0.1,0,0.2-0.1,0.2-0.2l0-10C48.5,5.6,48.4,5.5,48.3,5.5z"/>
	<path class="st0" d="M56,5.1c-1.6,0-2.7,0.7-2.7,0.7v-5c0-0.1-0.1-0.2-0.2-0.2h-2.8c-0.1,0-0.2,0.1-0.2,0.2v14.8
		c0,0.1,0.1,0.2,0.2,0.2c0,0,2,0,2,0c0.1,0,0.2,0,0.2-0.1c0-0.1,0.1-0.7,0.1-0.7s1.2,1.1,3.4,1.1c2.6,0,4.1-1.3,4.1-5.9
		C60,5.7,57.6,5.1,56,5.1z M54.9,13.5c-1,0-1.6-0.5-1.6-0.5V8.3c0,0,0.7-0.4,1.5-0.5c1-0.1,2,0.2,2,2.6C56.7,13,56.3,13.5,54.9,13.5
		z"/>
	<path class="st0" d="M24.9,5.4h-2.1c0,0,0-2.8,0-2.8c0-0.1-0.1-0.2-0.2-0.2h-2.9c-0.1,0-0.2,0-0.2,0.2v2.9c0,0-1.5,0.4-1.6,0.4
		c-0.1,0-0.2,0.1-0.2,0.2V8c0,0.1,0.1,0.2,0.2,0.2h1.5c0,0,0,1.9,0,4.4c0,3.3,2.3,3.6,3.8,3.6c0.7,0,1.6-0.2,1.7-0.3
		c0.1,0,0.1-0.1,0.1-0.2l0-2c0-0.1-0.1-0.2-0.2-0.2c-0.1,0-0.4,0.1-0.8,0.1c-1,0-1.4-0.5-1.4-1.1c0-0.6,0-4.2,0-4.2h2.1
		c0.1,0,0.2-0.1,0.2-0.2V5.7C25.1,5.6,25,5.4,24.9,5.4z"/>
</g>
</svg>
