<?xml version="1.0" encoding="iso-8859-1"?>
<!-- Generator: Adobe Illustrator 16.0.0, SVG Export Plug-In . SVG Version: 6.00 Build 0)  -->
<!DOCTYPE svg PUBLIC "-//W3C//DTD SVG 1.1//EN" "http://www.w3.org/Graphics/SVG/1.1/DTD/svg11.dtd">
<svg version="1.1" id="Capa_1" xmlns="http://www.w3.org/2000/svg" xmlns:xlink="http://www.w3.org/1999/xlink" x="0px" y="0px"
	 width="407.601px" height="407.601px" viewBox="0 0 407.601 407.601" style="enable-background:new 0 0 407.601 407.601;"
	 xml:space="preserve">
<g>
	<path d="M325.882,57.796H81.717c-11.748,0-21.306,9.552-21.306,21.299v249.426c0,11.738,9.552,21.297,21.306,21.297h244.165
		c11.744,0,21.302-9.553,21.302-21.297V79.095C347.178,67.348,337.626,57.796,325.882,57.796z M140.688,249.405H99.597V84.495
		h41.092V249.405z M365.832,0H41.763C20.626,0,3.485,17.142,3.485,38.281v331.035c0,21.144,17.141,38.284,38.278,38.284h324.075
		c21.138,0,38.278-17.141,38.278-38.284V38.281C404.116,17.142,386.976,0,365.832,0z M362.274,328.509
		c0,20.061-16.326,36.393-36.393,36.393H81.717c-20.064,0-36.396-16.326-36.396-36.393V79.095c0-20.058,16.325-36.389,36.396-36.389
		h244.165c20.061,0,36.393,16.326,36.393,36.389V328.509z"/>
</g>
<g>
</g>
<g>
</g>
<g>
</g>
<g>
</g>
<g>
</g>
<g>
</g>
<g>
</g>
<g>
</g>
<g>
</g>
<g>
</g>
<g>
</g>
<g>
</g>
<g>
</g>
<g>
</g>
<g>
</g>
</svg>
